<?xml version="1.0" encoding="utf-8"?>
<!-- Generator: Adobe Illustrator 17.1.0, SVG Export Plug-In . SVG Version: 6.00 Build 0)  -->
<!DOCTYPE svg PUBLIC "-//W3C//DTD SVG 1.1//EN" "http://www.w3.org/Graphics/SVG/1.1/DTD/svg11.dtd">
<svg version="1.1" id="Layer_1" xmlns="http://www.w3.org/2000/svg" xmlns:xlink="http://www.w3.org/1999/xlink" x="0px" y="0px"
	 viewBox="0 0 300 140" enable-background="new 0 0 300 140" xml:space="preserve">
<rect width="300" height="140"/>
<g>
	<path fill="#FFFFFF" d="M15.7,78H16v1.5h-0.3V78z M17.7,66.3h0.3v0.9c-0.1,8-0.3,12-0.6,12h-0.2v1.9l-0.6,0.6h-0.3l0.3-1.6v-0.3
		L16.3,78l0.3-8.8l-0.3-0.3l0.3-0.4h0.3v0.6h0.3L17.7,66.3z M21.1,25.2h0.3l0.6,2.6l0.7-0.6l0.3,0.3l0.5-0.6l-0.3-0.3v-0.6l0.8-0.3
		v0.3l-0.3,0.3v0.3h0.5l0.3-1.2h0.2V27l1.4-0.3h0.5l1.4,1.5v-0.6l0.3,0.3h0.3c0-0.6,0.5-0.8,1.6-0.8c0-0.6,0.2-0.9,0.5-0.9l0.8,0.9
		l1.9-0.6l0.2,0.3V27l0.3-0.3h0.8c0.4,0,0.6,0.4,0.6,1.2c0.6,0,1.2-0.3,1.9-0.8l0.3,0.3l0.3-0.3h0.5v0.8l1.9-1.4L40,26.1h0.3
		l0.8,0.6v-0.3l0.3,0.3h0.5c0-0.6,0.3-0.8,0.8-0.8v0.3l-0.2,0.3v0.3l1.6,0.6l0.3-0.3v0.6l1.9-1.5v1.2c0.7-0.6,1.3-0.8,1.9-0.8
		c0,0.4,0.4,0.6,1.3,0.6c0,0.6,0.2,0.8,0.5,0.8l0.3-1.4l0.2,0.3h0.3l0.8-0.3V27l-0.3,0.3l0.3,0.3v17.9l-0.3-0.3L51,45.4h-0.3
		l-0.3-0.3h-0.2l0.7,0.3l-0.3-0.3l0.5,8.2l0.6,1.8L51.5,56h0.3l0.2,0.3l-0.8,3c0,0.4,0.3,0.6,0.8,0.6l-0.8,1.5l0.3,1.2l-0.3,0.3v0.3
		l-0.5,1.8L50.2,67l1.3,2.4c0-0.8-0.2-1.2-0.5-1.2v0.3l0.3,9.3l0.5,0.6l-0.3,1.2v0.3h0.3v-0.6h0.3v2.1c-0.5,0-0.8,0.2-0.8,0.6v6.2
		L51,91l0.3,2.7l-0.5,1.7l0.2,1.2l-0.2,2l0.2,0.3h0.6l0.3-0.3h-0.3v11.1l-1.1,0.3l-0.2-0.3h-0.8v0.8h-0.5l0.3-0.3v-0.6H47v0.1
		c-1.6,0.1-3.5,0.2-5.7,0.2l-0.8-0.3l-0.8,0.3l-0.8-0.3l-0.2,0.3h-0.3l-1-0.3l-0.3,0.3h-0.3l-1-0.3l-0.3,0.3l-1.4-0.3h-3l-0.3,0.3
		l-0.3-0.3h-0.3l-0.8,0.3c-3.5,0-6.6,0-9.4,0c-0.7-0.8-0.7-1.2,0.2-1.2h-1.4V97.5l0.3,0.3h0.2c-0.7,0-0.9-1-0.6-2.9
		c0.1-1.9,0.2-3.7,0.2-5.3v-6.8h-0.5v-0.3l1.1-1.8h0.3v0.6h1.8v-0.6l0.3-0.4l-0.3-0.3c-1.3-0.4-2.4-0.6-3.2-0.6
		c0-0.6,0.3-0.9,0.8-0.9L19,69.3v-1.2l-0.3-0.4l0.3-0.3v-0.3l-0.3-1.4H19l-0.3-0.4v-6.2L18.4,59l0.3-0.4v-0.3l-0.3-1.2l0.3-1.5
		c-0.2-2.8-0.3-5.1-0.3-7.1l0.3,0.3c-0.5-0.1-0.5-0.5,0-1.4h-0.8V27.5l0.8-0.9l-0.3-0.3v-0.3l0.6-0.6l0.3,1.2l-0.3,0.9h0.5l0.3-0.3
		H20l0.3,0.3v0.3c-0.7-0.3-1-0.6-1-0.8L19,26.7v-0.3l2.1-0.9V25.2z M18.4,47.5l0.3,0.3l-0.3,1h-0.5v-0.6L18.4,47.5z M19.5,78.2H20
		l-1.6,0.4l-0.5,2.2h1.3v-1.6L19.5,78.2z M18.9,110.9h0.3l0.2,3.8c0.6,0,0.8,0.4,0.8,1.3l-2.3-0.6h1.3l0.6,0.6v0.3l-0.3,0.3v0.3h1
		c0-0.7,0.6-1.3,1.9-1.8c0.9,0.2,1.3,0.6,1.3,1.2h0.5v-0.9h1.1c0.4,0,0.6,0.5,0.6,1.6h1.1l1.3-1.6h1.4c0.3,0,0.5,0.3,0.5,0.9
		l1.1-0.9l0.7,0.4l0.3-0.4v1.6h1.1c0-0.8,0.2-1.2,0.5-1.2l0.3-0.4c0.7,0.2,1.1,0.7,1.1,1.3h0.3c0-0.8,0.7-1.3,2.1-1.3
		c0.6,1.5,1.1,2.2,1.4,2.2l0.5-1.8h0.5v-0.4L40,113l1.4,0.4h0.8v2.3H44c0.9,0.8,1.4,1.4,1.4,1.8h0.5c0-1.2,0.3-1.8,0.8-1.8l0.3,0.3
		h0.3l0.8-0.3v0.6h0.2l0.8-0.6h0.3c0.6,0,0.8,0.4,0.8,1.2c0.5,0,0.8-0.4,0.8-1.2h0.5v2.8l-1.8-0.3l-1.6,0.3l-1.1-0.3v0.3l-0.3-0.3
		h-4.9l-0.3-0.3l-0.3,0.3h-1.9l-1.9-0.3l-0.3,0.9l0.3,0.4h-0.3c-0.4,0-0.6-0.4-0.6-1.3l-2.7,0.6l-0.5-0.6l-0.3,0.3l-0.3-0.3h-0.5
		l-2.1,0.6h-0.5l-1.9-0.3v0.3l0.8,1.3v0.6h-0.5l-0.5-0.6c-0.7,0.2-1.1,0.6-1.1,1.3h-0.3l-0.6-0.6l-0.3,0.3h-0.6l-0.5-1.9h-0.2
		l-0.3,0.4h-0.3c0-0.8-0.7-1.2-2.1-1.3v0.6l-0.5-0.6l-0.3,0.3l-1.3-0.3l-0.3,0.3h-0.3l2-0.6l-0.3,0.3h-0.3l-1.4-0.3V110.9z
		 M18.1,48.1h0.5v1h-0.5V48.1z M18.9,107.7h0.3v1.9h-0.3V107.7z M22.5,111.8c0.4,0,0.6,0.8,0.8,2.3H23l-0.8,0.6l-0.8-1.3
		C21.8,112.5,22.1,111.9,22.5,111.8z M30.3,41.5v0.9h-4c-3.1,1.2-4.6,3.5-4.6,6.9v13.2l0.3,1.3l-0.3,1.3v12.5
		c0.9,0.8,1.4,2.1,1.4,3.8h0.3c0-0.8,0.6-1.3,1.9-1.3l1.1,0.3l0.5-0.6v0.3L25.7,82v0.6h-0.5c0-0.8-0.3-1.3-0.8-1.3l-0.2,2.8h-0.3
		l-0.3-1.5l0.3-0.3V82h-0.3L23,82.7v3.4l0.3,1.9L23,89.6c0.6,5.2,1.6,7.9,3,7.9c0,0.5,1.3,0.9,4,1.3l0.3-0.4h0.3l0.3,0.4h0.3l1-0.4
		l0.3,0.4l0.3-0.4h0.3l1.4,0.4l0.3-0.4h0.3l1.1,0.4l0.3-0.4h0.3l1,0.4v-0.4l0.3,0.4h1.4l0.3-0.4l0.3,0.4h1.6c1.8,0,2.7-0.2,2.7-0.6
		l0.3,0.3h0.3c2.3-1.5,3.5-4,3.5-7.5h0.2l-0.2-0.4l0.2-3.8l-0.5-5.6l-0.2-1.3l0.5-1.3h-0.3l-0.2,1.6v0.9H47v-0.9l0.3-1.6h-0.5v1.6
		l1.8-0.3h-1v0.6l0.2-0.3l-0.3,0.3h-0.5l0.3-0.3v-1.3H44l-0.3,1l-2.1-0.6l-0.3,1.3H41v-1l-0.2,0.4h-0.6L40,79.5h-0.3l-0.5,0.7
		l-0.3-0.3h-0.2l-0.3,0.3v0.3l0.3,0.3h-0.3c0.2,1,0.6,1.6,1.1,1.6v0.3L39.2,83l0.3,0.3v0.3l-0.6,0.6l-1.3-4.7h-0.3V83l0.3,1.2
		c0,2.4-0.7,3.6-2.1,3.8c-0.9,0-1.4-1.3-1.4-3.8l-0.3-0.9L34,83v-4.1l-0.3-0.3l0.3-0.4V78l-0.3-0.4v-8.1l1.9-0.6l-0.6-0.6h-0.3v0.6
		L34,68.2h-0.3c0,6.2-0.3,9.4-0.8,9.4V65.1l-0.3-9.4l0.3-2.8l2.5-0.9l0.5,3.8v3.5l0.3,0.3l-0.3,0.4V60l0.3,3.8l-0.3,1.9l0.3,1.5
		c0.3,0,0.5-0.3,0.5-0.9h0.6c0,0.6,0.2,0.9,0.5,0.9l0.5-1.2h0.3v0.3c-0.2,1.9-0.5,2.8-0.8,2.8l-0.3-1.5l-0.8,0.9
		c0,0.5,0.2,3.7,0.6,9.5v0.3h1v-0.6h0.5c0,0.7,0.2,1,0.6,1h0.3c0-0.7,0.2-1,0.5-1V78L40,78.2v0.4l0.3,0.3h0.3l0.5-0.6v0.4h0.3V78
		l1.3,0.3V78l1.4,0.6h3.4l-0.5-10.4l-0.2-1l0.2,0.4h0.3l0.3-0.4v1h0.2l0.3-0.4l-1.3,1l0.3-1.6L46.7,67v-0.4l0.3-1.2l-0.3-1.6
		l0.3-0.3l-0.3-1.6V51.9c0-5-1-8-3-8.8v1.3l0.5,0.6l0.3-0.3v1.9h-0.3l-1.1-2.2l-0.5-0.6l0.3-1.3l-0.3-0.3l-0.2,0.3h-0.6L41,41.9
		l-0.2,0.3l-0.3-0.3L40,42.5l-0.5-0.6l-0.8,0.6l-1.4-0.3h-1.4l-0.3,0.3h-0.3v-0.3l-0.8,0.3C32.4,42.5,31,42.2,30.3,41.5z
		 M23.8,111.8h0.8l0.2,1.6v0.3l-0.7,1l-0.6-1v-0.3L23.8,111.8z M26.8,115.7v0.3l-0.5,0.6v-0.3L26.8,115.7z M27.3,43.4h0.5L27.6,45
		h-0.5L27.3,43.4z M28.4,109.3h0.5v0.3l-0.3,0.9l-0.3-0.3h-0.3L28.4,109.3z M28.4,112.1h1l0.3,1.3c-0.3,0.8-0.6,1.3-0.8,1.3
		c-0.4,0-0.6-0.5-0.8-1.6L28.4,112.1z M29.4,108.1H30v0.6l-0.2,1.6h-0.5l0.2-0.3V108.1z M30.5,112.1h0.3c0.5,0.2,0.8,0.8,0.8,1.9
		l-0.5,0.6h-0.3l-0.8-1v-0.9L30.5,112.1z M30.8,69.5h0.3v8.7l-0.3,1h-0.3v-0.4L30.8,69.5z M31.1,107.7h0.3v1.3h-0.6v-0.3L31.1,107.7
		z M32.4,113h0.5l0.3,1h-0.3l-0.5-0.6V113z M34.6,43.4l0.5,0.6v0.3h-0.5V43.4z M36.5,20.3h0.2v0.6h-0.8L36.5,20.3z M36.7,62.9
		l0.8,0.3v0.9l-0.3-0.3H37l-0.3,0.3V62.9z M38.3,58.7h0.8l0.5,0.6v0.4l-0.5,0.6v-0.6L38.9,60h-0.5V58.7z M39.4,67l0.3,0.3v0.4
		l-0.5,0.6h-0.3v-0.6L39.4,67z M39.4,45.3h0.3v2.2h-0.3V45.3z M39.7,111.5h0.5l-0.3,0.9h-0.3V111.5z M41.6,49.4v0.4l-0.8,2.5h-0.3
		v-0.3C40.8,50.2,41.2,49.4,41.6,49.4z M41.3,82.4l0.3,0.3L41.3,83v0.6l0.3-0.3h0.5v0.9l-0.3,1.6l0.3,0.3l-0.5,0.6l0.5,1.6h-0.3
		l-0.5-0.6v-1.3l0.5-2.5h-0.3l-0.8,0.3l-0.3-0.3v-0.6L41.3,82.4z M41.6,61.9h0.3v1.6l-0.5-0.6L41.6,61.9z M42.4,42.8v0.3l-0.6,0.6
		v-0.3L42.4,42.8z M41.8,60h0.6v0.4L41.8,61V60z M41.8,66.3l0.6,0.6v0.3l-0.6,0.6V66.3z M43.5,54.7h0.8V55l-0.5,0.6h-0.3V54.7z
		 M44.6,112.1v0.3L44,113v-0.3L44.6,112.1z M44.8,108.4v0.3l-0.5,0.6V109L44.8,108.4z M45.1,52.5h0.3l-0.8,0.9v-0.3L45.1,52.5z
		 M44.8,57.9l0.3,0.3h0.3l1-0.3v0.3l-1.4,1.3L44.8,57.9z M45.9,53.5h0.5c-0.2,2.1-0.6,3.1-1,3.1V56C45.8,55.3,45.9,54.5,45.9,53.5z
		 M45.6,107.1l0.5,0.6l-0.2,0.3h-0.3V107.1z M46.7,81.4v0.3l-0.6,0.6L45.9,82v-0.3l0.2-0.3H46.7z M47.7,64.5v0.6l-1,1.9L47.7,64.5z
		 M47,83.6l0.6,0.6v0.4L47,83.9V83.6z M47.7,78.8l-0.2,0.4h0.2C47.7,72.3,47.7,72.2,47.7,78.8z M48.1,116.5l-0.3,1.3h0.8v-1.3H48.1z
		 M48.6,108.4l0.5,0.6v0.3l-0.5-0.6V108.4z M50.2,60h0.2l0.3,1l-0.3,0.4h-0.2V60z M50.4,54.4h0.3V56l0.8-0.6v1.3h-1.1V54.4z
		 M50.4,67.9v1l0.5-0.6v-0.4H50.4z M51,114.7h0.3v0.6h-0.8L51,114.7z M50.7,110.6l0.8,0.3v0.6h-0.3l-0.5-0.6V110.6z M51,60.4h0.5
		v1.3L51,61V60.4z M51.5,62.3v0.9H51v-0.3L51.5,62.3z"/>
	<path fill="#FFFFFF" d="M65.9,28.8L67,29l0.9-0.3h1.2v0.6h-0.4L68.5,29l-0.2,0.3H67L66.1,29l-0.2,0.3V29l-0.2,0.3h-5.3l-1.7,0.3
		l-1.4-0.3v0.6h3.5l0.8,0.3l0.7-0.3h2.1l0.2-0.3l0.2,0.3h2.1l0.8-0.3l0.8,0.3l1.7-0.3l0.6,0.3v-0.3l0.2,0.3l2.3-0.3h0.2l0.6,0.3
		l0.9-0.3h3.8l0.2,0.3l2.3-0.6l0.7,0.3h0.8l1.2-0.3l1.2,0.6l0.6,12.7l-0.4,4H85L84.5,46v1.1H85c0,1.6-0.1,2.8-0.4,3.7h0.2l-1.3,11
		h0.2l-1.3,10.2v0.5l0.2,0.3V73l-1.3,10.7l0.2,0.3v0.3l-0.7,6.8h0.2l-0.4,0.8l0.2,0.3v0.3l-0.8,6.8l0.2,0.3l-0.4,0.6l0.2,0.3
		l-0.9,7.9l0.2,0.3l-0.4,4.5c-15.2,1.4-22.8,2.3-22.8,2.8l-0.2-0.3h-0.2l-0.2,0.3h-0.2c-1.3-7.1-2-12-2.1-14.9l0.2-0.3v-0.3L53,99.3
		h0.4l0.2,0.3h0.2c0-0.6-0.2-0.8-0.7-0.8v-0.3l0.2-0.3l-0.4-3.4l0.2-0.8l-0.2-0.8H53l-0.2-0.3V90l-0.2-0.3l0.2-0.3v-0.6l-0.2-0.3
		l0.2-0.3V88l-0.2-1.4h0.2l-0.2-0.3v-3.7l0.2-0.3l-0.4-2.6l0.2-0.3v-0.3L52.5,79v-0.3l0.2-0.3L52.5,77v-6.2l-0.2-1.2l0.2-0.8
		L52.3,68h0.2l-0.2-0.3v-3.1l-0.2-1.1l0.2-0.8l-0.2-0.3V62l0.2-0.3l-0.2-1.4v-2l-0.2-0.3l0.2-0.3l-0.2-2v-4.8l-0.2-2h0.2l-0.4-2
		l0.2-0.3v-0.3l-0.2-1.2l0.2-0.3c-0.2-2.3-0.4-5.8-0.4-10.5h-0.2l0.2-0.3l-0.2-2v-0.6c2.3-0.6,3.5-1.6,3.5-3.1H65.9z M53.2,29.3
		l-0.2,0.3v0.3h1.3v-0.3L53.2,29.3z M61.8,41.2l-1.3-0.3H56l0.3,5.7v1.1l0.3,0.8l-0.3,1.4v5.9l0.3,0.3l-0.3,0.3V62l0.3,0.3l-0.3,0.3
		v5.7l0.3,0.3l-0.3,0.3v1.7l0.3,1.1l-0.3,1.2v1.4l0.3,0.3l-0.3,0.3v1.7l0.3,2.3l-0.3,1.7l0.3,1.4l-0.3,0.8l0.3,6v5.1l1.3-0.3
		l3.8,0.3l2.8-0.3l3.6,0.3l1.8-0.3l0.8,0.3l1.3-0.3v0.3c3.6,0,5.9-1.6,7.1-4.8c0.1-2.1,0.3-3.1,0.5-3.1l-0.3-1.4l0.3-2.3l-0.3-2
		l0.3-1.7L79.2,77l0.3-2c0-4.5-1.1-7.6-3.3-9.3l-1-0.3v-0.3c2.4-1,3.6-2.3,3.6-3.9l0.5-0.6l-0.3-0.3l0.5-3.7l-0.3-2l0.3-1.7
		l-0.3-1.9l0.3-0.3v-0.3l-0.3-1.2h0.3c0-3.7-1.1-6.2-3.3-7.6L71,40.6l-0.7,0.3L68,40.6h-2l-0.3,0.3l-0.3-0.3h-0.3
		C62.9,40.7,61.8,40.9,61.8,41.2z M57.8,112.2l-0.3,0.3v0.3h0.8L57.8,112.2z M58.3,117.6h5.3v0.3h-5.3V117.6z M60.6,119h1v0.3h-1
		V119z M64.7,112.8v0.3l0.5-0.6v-0.3L64.7,112.8z M65.9,110.8v0.3l0.3,0.8h0.5l-0.3-1.1H65.9z M68.2,49.3l0.7,1.2V55l0.3,1.7
		c-0.2,2.2-0.4,3.3-0.7,3.3l-1,0.3c-0.7,0-1.1-1.5-1.3-4.6l0.3-1.9l-0.3-1.7C66.2,50.3,66.9,49.3,68.2,49.3z M67.2,69.9h0.5l1.3,0.3
		v3.1l0.3,1.1L69,75.6V77l0.3,1.1L69,79.3v0.3l0.3,3.1c-0.3,1.3-0.6,2-1,2h-1c-0.5-0.2-0.7-0.7-0.7-1.7v-2.3l-0.3-2.8l0.3-2.8
		l-0.3-0.8h0.3l-0.3-0.3C66.4,71.3,66.7,69.9,67.2,69.9z M66.7,53v0.9h0.5V53H66.7z M67.4,54.1l0.5,0.6h0.5v-0.6H67.4z M68.2,73.4
		L68,74.2h0.3l0.3-0.3v-0.5H68.2z M68,113.3v0.3h0.8v-0.6L68,113.3z M68.2,106.1l0.5,0.5l0.2-0.3v-1.1L68.2,106.1z M69.5,109.1
		l-0.3,1.4c0.4,0,0.6-0.5,0.8-1.4H69.5z M70.8,112.2v0.3h0.5v-0.8L70.8,112.2z M73.3,28.8h2V29l-1.8,0.3h-0.3V28.8z M75.9,28.8h2.8
		V29l-2.8,0.3V28.8z M79.2,28.8h1.3L80,29.3h-0.8V28.8z M79.7,110.8l-0.5,0.8h0.5l0.3-0.8H79.7z M79.7,51.3v0.6h1l-0.5-0.6H79.7z
		 M81,36.1v0.6h-0.2c0.3,0.8,0.6,1.3,1,1.4l0.3-0.3v-0.3l-0.8-1.4H81z M82.5,45.4l0.3,0.8H83v-0.8H82.5z M82.5,54.4v0.3h1v-0.3H82.5
		z M83,42v0.8h0.5V42H83z M83.8,28.8h1V29h-1V28.8z M86.1,28.8l0.3,0.3v0.3H85V29L86.1,28.8z M87.1,28.8h1V29l-1,0.3V28.8z"/>
	<path fill="#FFFFFF" d="M84.1,25.9h4.8v1.9h1l0.3-0.4l0.3,0.4h2.6l0.3-0.4l0.3,0.4h2.4v-1.9h2.1v3.4h9.6v-2.6h1.6l0.3,0.4l0.3-0.4
		h1.3l0.3,0.4h0.3l-0.3,1.5h-0.3v-0.8h-0.3v0.4c0,0.7,0.3,1.1,0.8,1.1v0.4h-0.8l-0.3-1.1h-0.5c0,1,0.4,1.5,1.3,1.5v0.4l-1,0.4v0.4
		l0.3,3.4l-0.3,0.9l0.3,3.2v4.2l-0.3,2.3l0.3,1.9v1.5l-0.3,1.5l0.3,2.7v5.7l0.3,17.7h0.3l-0.3,0.4l0.3,2.6V87l0.3,5.7l-0.3,1.5
		l0.3,6.8v3.4h-0.5v0.4l-0.3-0.4h-5.6l-1.6-0.8l-0.8,0.4l-3.2-0.8h-1.1l-0.3-0.4l-0.3,0.4h-0.3l-6.6-0.7l-0.3,0.4h-0.3l-3.8-1.5
		h-2.4c-0.4,0-0.7-1.6-0.8-4.9l0.3-11.3h-0.3l0.3-0.4v-0.4l-0.3-1.2c0.3-2.6,0.5-7.1,0.5-13.4V53.4l0.3-1.5l-0.3-1.5V25.9z
		 M85.2,79.1l0.5,0.7l0.3-0.4v-0.4H85.2z M98,45.3l0.3,1.9v23L98,72.5l0.8,10.8L98.3,86L96.4,87c-1.6-0.3-2.2-2.3-1.9-5.8L94.3,74
		H94l0.3-0.4v-0.9l-2.7,0.2v-0.2L90.3,73l-0.8-0.4l-1.6,0.2l-0.3-0.2c-0.9,0-1.3,1.3-1.3,4v3.8c0.2,8.3,0.8,12.6,1.8,12.9l4.5,2.1
		l0.5-0.4l-0.3,0.4h7c3.8-0.3,6.1-2.1,6.6-5.3l0.8-4.9V55.9l-0.5-3.4l0.3-1.2l-0.3-3l0.3-7.5l-0.3-0.4v-0.4l0.3-1.5h-1.3l-1.9,0.4
		v-0.3l-1.3-0.1l-0.8,0.1L99.4,39l-0.8-0.3c-0.9,0-1,1.3-0.3,4L98,45.3z M89.4,104.3l2.7,0.4h2.4l1.3,1.5l-0.3,0.4l2.1,0.8v0.4h-8.3
		V104.3z M91.4,24.2l0.3,0.3v0.9l-0.8,0.9l-1.3-0.6v-0.9h1v0.3l-0.3,0.3v0.3h0.3C90.8,24.8,91.1,24.2,91.4,24.2z M89.5,26.1l0.8,0.3
		V27l-0.8-0.3V26.1z M90,26.3c1.1,0.3,1.6,0.7,1.6,1.1h-0.5L89.7,27l0.3-0.4V26.3z M92.4,20.5l0.3,0.3h0.3l0.8-0.3l0.3,0.3v0.9
		L93.8,22l0.3,0.3V23h-1.6l-0.3-0.3L91.9,23h-0.3l-0.5-0.6c0.7,0,1-0.2,1-0.6l-0.3-0.3L92.4,20.5z M94,26.7h0.3l0.8,0.9v0.3
		l-1.3-0.3L94,26.7z M96.4,20.5h1.1v2.1L97,23.3L96.7,23l-0.3,0.3h-0.3L95.4,23C95.6,21.4,96,20.5,96.4,20.5z M97.2,25.5h1.1v0.3
		l-0.5,0.9l0.3,0.3v0.3l-0.3,0.3h-0.3L97,27h-0.3l-0.8,0.6L95.4,27C96.6,26.5,97.2,26,97.2,25.5z M95.9,114.5l0.3,0.3v0.3h-0.8
		L95.9,114.5z M103.7,22.4V23l-1.9,0.3h-2.1V23L103.7,22.4z M100,20.8h0.5c1.1,0.2,1.6,0.5,1.6,0.9l-1.4,0.3L100,20.8z M102.4,122.2
		l1,0.3l1.1-0.3v0.6l-1.6,0.3l0.3,0.3v0.3l-0.3,1.6h-1.3l-0.6-0.6V124l1.4-0.3v-0.3l-0.3-0.3L102.4,122.2z M101.2,33.4v0.4h2.9v-0.4
		H101.2z M102.9,120.9h1.4c-0.2,0.6-0.7,0.9-1.6,0.9h-0.3v-0.3L102.9,120.9z M104.8,123.1l0.8,0.3l-1.3,1.3v0.3h-0.5v-0.6
		c0-0.4,0.3-0.6,0.8-0.6l0.3-0.3V123.1z M104.2,22.4l2.4,0.6l0.3-0.3h0.3l0.3,0.3l4.3-0.6l0.3,0.3v0.6h-0.3l-0.3-0.3h-0.3l-2.1,0.6
		L104,23l0.3-0.3V22.4z M107.2,117l1.1,0.3v0.3l-0.3,0.3l0.3,0.3v0.6l-1.6,0.3v0.6c1.1,0,1.6,0.2,1.6,0.6l-1.6,0.3v0.3h0.8v0.3
		l-0.5,0.6l-2.4-1.6l0.5-2.8l-0.3-0.3L107.2,117z M108,113.9h0.3v1.5H108v-0.6l-1.1,0.3v0.3h0.5c0,0.5-0.9,0.8-2.7,0.9v-0.9
		c0.5,0,0.8-0.2,0.8-0.6h1.1C107.6,114.8,108,114.5,108,113.9z M107.4,112h0.8v1.3l-1.6,0.3L107.4,112z M107.7,20.8h0.8v0.6h-0.8
		V20.8z M108.6,27c0.3,1,0.5,1.5,0.8,1.5L108.6,27z M109.6,21.2h0.3v0.6h-0.8L109.6,21.2z M110.2,20.8h0.5c0.6,0.6,1.1,0.9,1.6,0.9
		v0.6C110.9,22.4,110.2,21.9,110.2,20.8z M113.5,56.1l0.3,0.4v0.4l-0.8,1.2l-0.3-0.4L113.5,56.1z M114.5,23l0.3,0.3v0.3l-1.9,0.3
		v-0.6L114.5,23z"/>
	<path fill="#FFFFFF" d="M143.7,23.6v0.3c0,0.3-1.6,0.6-4.7,1l-0.3-0.3h-0.3l-2,0.3v0.3h0.5v0.2l0.2-0.2h0.5l-0.3,0.2v0.5l0.3,0.3
		v0.3h-0.5v0.5h0.5v0.3h-0.3l-1.5-0.3v-0.3h1v-0.3c-0.5,0-0.8-0.3-0.8-0.8l-0.5-0.5h-0.3l-1.3,0.2v-0.2l-1.6,0.5l-0.2-0.3v0.3
		l-0.3-0.3h-1.3l-1,0.3l-1-0.3H128l-1,0.3l-0.3-0.3h-0.5v0.3h0.5v0.3h-0.8v-0.5h-0.5l-0.3,0.3h-0.3l-0.5-0.5H124l-0.3,1.3l0.3,0.3
		h0.3v-0.3l-0.3-0.3v-0.3h0.5v-0.3l1.3,0.3c0,0.9-0.3,1.3-0.8,1.3v0.3l0.8,0.3v-0.3l-0.3-0.3h0.8l-0.3-0.3v-0.3l0.3-0.3l-0.3-0.3
		h0.5l0.3,0.3h0.3v-0.3l-0.3-0.3h0.8l-0.3,0.3v0.3l0.3,0.3h-0.8v0.3h0.5v0.3l-1.3,0.3v0.3h0.3c1,0,1.6-0.3,1.6-1h0.5v0.3l-0.3,0.3
		v0.3l0.8-0.3h0.3v0.3c-0.5,0-0.8,0.2-0.8,0.5l0.3,0.3h0.3l1-0.3l-0.3-0.3v-0.3h0.5c0,0.9-0.2,1.3-0.5,1.3l-0.8-0.3l0.3,0.3V29
		l-1.5,0.3v0.3l1.5,0.2L129,30v0.3c0.7,0.7,1.4,1,2.1,1c0.9,0,1.3-0.3,1.3-0.8h0.2l1,0.3h0.3v-0.3h-0.5v-0.3h0.3l1,0.3h0.3v-0.3
		l-1.3-0.3v-0.3h0.5l0.3,0.3h0.3l1.3-0.5l0.3,0.2V30l0.8-0.3h0.2V30h-0.5v0.3h0.5l-0.5,0.5h-0.3l-0.5-0.5V30l-1.3,0.8v0.3l0.5,0.5
		c0.3,0,0.5-0.3,0.5-1h0.3c0,0.9,0.5,1.3,1.5,1.3l0.5,0.5v0.3l0.3-0.3h0.3l0.5,0.5l0.3-1.3c0.7,0.2,1,0.5,1,0.8l-1.6,1.6l0.8,1.5
		h-0.3c0.1,0.7,0.3,1,0.8,1v0.3h-0.5V37h0.8v-0.8c-0.5,0-0.8-0.3-0.8-0.8h0.3l-0.3-0.3v-0.3l0.5-0.8l-0.5-0.5c0-0.3,0.3-0.5,0.8-0.5
		l0.3-0.3v-0.3l0.8,0.3v0.3l-1,0.3v0.3h0.8v0.3l-0.3,0.2v0.3l1.8-0.7h0.3v0.3c0,0.3-0.3,0.5-1,0.5v0.3h0.5l0.8-0.3l0.5,0.8V36
		c0,0.3-0.4,0.5-1.3,0.5v1l0.3,0.3l-0.3,0.3v0.5l0.3,1.6l-0.3,0.3l0.3,1.3v2.6l-0.3,0.8l0.3,1.3v6.4l0.3,1l-0.3,1V58h0.8v0.8
		l-0.3-0.3h-0.5v0.3l0.5,1.6h-0.5v1.3h0.5l-0.3,0.3v1l0.3,0.3l-0.3,0.3v2l-0.3,1.3l0.8,0.3v0.3h-0.5l-0.3,0.3l-0.8-0.8h-0.3V67
		l1.3,1l0.3-0.3h0.3l0.3,0.3v0.3l-2.3,1l-2.4-0.8h-1l-1.3,0.3v-0.5h1l-0.5-0.8c1.6,0,2.6-0.2,2.9-0.5v0.5h0.3v-0.8l-0.3-0.3v-0.3
		h0.5V66c-0.5,0-0.8-0.4-0.8-1.3h0.8c0,0.8,0.2,1.3,0.5,1.3c0-1-0.3-1.5-1-1.5v-0.3h0.5v-0.3l-1-0.3l0.3,0.3v0.3l-0.3,0.8l0.3,1.5
		l-0.3,0.8l-0.3-0.3h-0.3l-0.3,0.3l-0.3-0.3h-0.3l-0.3,0.3h-0.3l-0.3-0.3v0.3l-0.3-0.3H137l-1.8,0.5l-0.5-0.5h-0.3v0.3l0.3,0.3v0.3
		h-0.8v-0.5h-1l-0.5,0.5v0.3h0.5v-0.3l2.4,0.5c0-0.5,0.4-0.8,1.3-0.8h0.5l-0.3,0.8l-1.3-0.3v0.8l-2.9-0.5l-1,0.3v-0.3l0.3-0.3v-0.3
		h-0.5v-2.1l1.5-0.3v0.3l2.1-0.5v0.5h0.3l0.8-0.5l1.3,0.2h0.3L138,65l-0.3-0.3l0.3-0.3h-0.8v-0.3c0.5,0,0.8-0.2,0.8-0.5v-0.5
		c0-0.3-0.3-0.5-0.8-0.5v-0.5l0.3,0.3h0.3v-5.4h-1.5l0.3,0.3v0.3H136v0.3h0.5l0.7-0.3v0.3l0.3,0.8H137V58h-0.3l-0.8,0.3l-0.5-1
		l0.3-0.3h-4.4l-0.3,0.3h-0.3l0.3-1.3v-1.3l-0.5-0.8h0.5v-7.2l-0.3-1.3h0.8l1-0.3l0.3,0.3h0.3l1.6-0.3v0.3l0.3-0.3h0.3l0.3,0.3
		l1.3-0.3h0.5l0.3,0.3h0.3l-0.3-1.3v-4.9l-0.3,0.3h-0.7c0-0.3,0.2-0.5,0.7-0.5l0.3-0.3v-0.7l-0.3-0.3l0.3-0.3v-0.8l-3.1,0.3l0.3,0.3
		v0.3h-1.6V37h1v-0.3H131l-3.9,0.3l-0.8-0.3l-3.6,0.3h-2.9v6l0.3,1l-0.3,1l0.3,0.3h-0.3l0.3,0.3v0.3l-0.3,0.3v0.3l0.3,1.3h-0.3
		l0.3,0.3v0.3l-0.3,0.3v0.3l0.3,0.3h-0.3c0.1,0.9,0.4,1.3,0.8,1.3v0.3c-0.5,0-0.8,0.2-0.8,0.5h0.8v0.3c-0.4,0-0.7,0.4-0.8,1.3h0.8
		l-0.5,0.5l0.3,0.3v0.3l-0.3,1.6h0.5l-0.5,0.8l0.3,0.3l-0.3,0.3v0.7l1.8,0.3V58l-1.3-0.3h-0.5l0.5,1h-0.5v0.5l0.3,0.3l-0.3,0.3v1.8
		h0.5v0.5h-0.5l-0.3,0.8c0.1,0.9,0.4,1.3,0.8,1.3v0.3h-0.5v0.3c0.6,0,1.2,0.3,1.8,1h0.5l0.5,0.5v0.3c0,0.3-0.3,0.5-0.8,0.5l0.5,0.5
		l0.5-0.5c0.4,0.3,1.3,0.5,2.8,0.5l0.5,0.8h-0.3l-1.3-0.3l-0.3,0.3v0.3l-1.5-0.5v0.5H123v-0.5l-0.3,0.3h-0.5l-1.8-0.3v0.5h-0.3
		l-1.3-0.8h-0.5l-0.5,0.5l-0.8-0.3l-0.8,0.3v-0.3l-1,0.5l-0.3-0.3l-0.3,0.3v0.3h0.5l0.3-0.3h0.3l0.5,0.5l1-0.8v0.3l-0.3,0.3v0.3
		l0.3,0.3h0.3l-0.3,0.3v0.5l0.8-0.5v0.5l1.8-0.3h0.3l0.3,0.3l0.3-0.3h0.3l0.8,0.8v0.5l-1.6-1l-1.8,0.5v1l0.3,0.3v0.3l-0.3,0.3h0.3
		l-0.3,0.3V73l0.3,1.5l-0.3,0.3l0.7,0.3l-0.5,0.5l-0.3-0.3v0.5h0.7v0.3h-0.7v1.6l0.3,0.3v0.3h-0.5l0.5,1.5l-0.3,0.3l0.3,0.3h0.3
		l0.5-0.8l-0.3-0.3v-0.3h0.8c-0.2,1.4-0.5,2.1-1,2.1c0-0.5-0.3-0.8-0.8-0.8v0.3l0.3,1h0.7l0.3-0.3h0.3v0.5h0.3l0.8-0.3l0.3,0.3v-1
		h0.3c0.2,0,0.5,0.3,0.8,1l-0.3,0.8l-0.3-0.3h-0.3l-2.3,0.5v-0.5h0.5V82h-1l-0.3,1l0.5,1.3l-0.5,2.6l0.3,0.3v0.5l-0.3,0.2v0.3
		l0.3,0.3h-0.3l0.3,0.3V89l-0.3,0.3v0.3h0.8c0,0.3-0.3,0.5-0.8,0.5v0.3l0.3,0.3l-0.3,0.3v0.3l0.3,0.3v0.3h-0.3l0.3,0.3v0.3l-0.3,0.2
		v0.3h0.3l-0.3,0.3v0.3l0.3,0.8h-0.5v0.3h0.8v-0.3l0.3,0.3h1l0.3-0.3l0.3,0.3h0.8l1-0.3l0.8,0.3v-0.3l0.3,0.3h0.3l0.7-0.3l1.6,0.3
		h0.3v-0.8h0.5l-0.3,0.3v0.5h3.9l0.3-0.3l0.3,0.3h3.6l0.3-0.3l0.3,0.3h1v-4.1l0.3-1.3l-0.8-0.3v-0.3h0.5V87l-0.3-0.3v-0.3l0.3-0.3
		h-0.5v-0.5l0.3,0.3h0.5v-0.5l-1,0.3l-2.8-0.3l-1.8,0.3l-1.3-0.3l0.3-0.3v-6.2l0.3-2.8l-0.3-0.3v-0.3l0.3-1l-0.3-0.2l0.3-0.3v-2.9
		c0-0.3-0.3-0.5-0.8-0.5l-0.3-0.3v-0.5h0.3l0.3,0.3h0.3v-0.3c3.6,0.8,5.4,1.3,5.4,1.6l1.6-0.5v0.3l0.3-0.3h4.1
		c0.8,0,1.3,0.2,1.3,0.5l0.8-0.3h0.8v0.3l-2.1,0.3l-0.5-0.5l-0.3,0.3v5.4l0.3,2.8l-0.3,0.3v0.3l0.3,0.3v0.3l-0.3,1.6v0.3l0.3,0.3
		v0.3h-0.3l0.3,0.2v0.3l-0.3,1.3l0.3,0.3v0.3l-0.3,1.6h0.3l-0.3,0.3v0.3l0.3,0.3l-0.3,0.2v0.3l0.3,0.8l-0.3,1.6
		c0,0.9,0.2,1.3,0.7,1.3v0.5l-0.2-0.2h-0.5v0.5l0.3,0.3l-0.3,0.3v1h2.3l0.5,0.5V96h-0.8v0.5l0.3-0.3h0.5l-0.3,0.3v0.7l0.3,0.3v0.3
		h-1v0.3h1v0.3h-0.5l0.5,0.8v0.3h-0.8v0.3h0.8c0,0.5-0.3,0.8-0.8,0.8v0.3h0.8v0.5l-0.3,1l0.3,0.3v0.3c-0.1,0.7-0.3,1-0.8,1v0.3h0.8
		l-0.5,1.6h0.5v0.2h-0.8v0.3c0.5,0,0.8,0.3,0.8,0.8h-0.3l-1-0.3l-0.8,0.5l-1.8-0.5l-0.3,0.3l-1.3-0.3h-5.7l-0.2-0.3h-0.3l-0.3,0.3
		v-0.3l-0.3,0.3h-3.1l-1-0.3l-4.4,0.8v-0.5l-2.4,0.5l-0.8-0.3l-0.8,0.3l-1.3-0.3l-1.3,0.3l-0.3-0.3H116l-2.6,0.5v-0.5l0.3-0.3v-0.3
		h-0.3l-1,0.3l0.3-0.3l-0.3-0.3v-0.7h0.5v-0.3l-0.5-0.8l0.3-0.3l-0.3-0.3v-1l0.3-0.3l-0.3-0.3v-1.3c0.9,0,1.3-0.2,1.3-0.5l-0.8,0.3
		h-0.5v-0.3c0.7,0,1-0.3,1-0.8h0.3v0.5h0.5l-0.3-0.3v-0.3l0.3-1l-0.3-0.3l1-1.3v-0.3c-0.7,1-1.3,1.6-1.8,1.6l0.3-0.3v-0.3h-0.5v-0.3
		c0.9,0,1.3-0.3,1.3-1H114l-0.3,0.7l-0.3-0.3h-0.3l-0.3,0.3l-0.3-0.3v0.3l0.3,0.3h-0.5v-1.3l0.3-0.3l-0.3-0.3v-1.3h0.3
		c0,0.3,0.3,0.5,0.8,0.5l-0.3,0.3v0.3l0.3,0.3h-0.5V96h0.3l0.8-0.3l-0.3-0.3v-0.3h0.5V95c-0.9,0-1.4-0.3-1.6-0.8v-0.3h0.5v-0.3h-0.5
		l-0.3,0.3v-1.8l1-6v-4.9h-0.8c0-0.3,0.3-0.5,0.8-0.5v-1.6l0.3-0.3l-0.3-0.2v-1.6l0.3-0.3l-0.3-0.3v-1l0.3-0.3V75l-0.3-0.3h0.3
		l-0.3-0.3V74l0.3-1l-0.3-0.8h0.3l-0.3-0.3v-1.8c0-1-0.3-1.7-1-2.3v-1.3h0.3l0.3,0.3h0.3c0-0.3,0.3-0.5,0.8-0.5l0.7,0.3v-0.3
		c0-0.3-0.5-0.7-1.5-1l0.3,0.2V66h-0.3l-0.8-0.7l0.5-0.5h-0.3l-0.3,0.3v-0.3l0.3-0.3l-0.3-0.3v-0.5h0.3c0.3,0,0.5,0.3,0.5,0.8h0.3
		v-0.5l-1-1v-2h0.5l0.5,1l1.3-0.3l0.3,0.3h0.3l0.8-0.3l0.5,0.5v-0.3c0-0.3-0.3-0.5-0.8-0.5l-0.8,0.3V61l-1.5,0.5l-0.3-1.3l-0.3,0.3
		h-0.5v-1.8l1.6-0.3v-0.3l-0.5-0.5h-1v-1.8l1.6-0.3l1,0.3l-0.3-1l0.3-0.8h-1.3l-1.3-1v-0.5c0.7,0,1,0.3,1,1h0.5v-0.8l1,0.3h0.3v-0.3
		h-0.5l0.3-0.3v-1l-0.3-0.3L115,51l-0.3-1.3v-2.3l0.3-0.3l-0.3-0.3v-0.3l0.3-1.3c-0.1-1-0.3-1.6-0.5-1.6l0.2-0.3v-0.7h-1.3v-0.3
		l1.3-0.3c-0.3-1.6-1-2.9-2.3-4.1v-2.4h0.5V36l-0.3,0.3v0.3l1.6,1h0.5V37c-0.5,0-0.7-0.2-0.7-0.5l0.3-0.8l1.3,0.3
		c0.9,0,1.5-0.3,1.8-1h0.5v-0.3h-0.8v-0.3l1.3-0.3h0.3v0.8l-1.3,0.3v0.3l5.2-0.8h0.3v0.3h-0.5v0.3h0.3l1-0.3l1.3,0.3l0.3-0.3h0.3
		l1,0.3l1-0.3l0.3,0.3v-0.3l-0.8-0.5l-0.3,0.3h-0.3v-0.3l0.5-0.5h0.5c0.4,0,0.6,0.4,0.7,1.3l1.3-0.3l-0.5-0.8l0.3-0.2l0.3,0.2h0.3
		l0.5-0.5l-0.3-0.3h0.5v-0.3h-0.8l-0.3,0.3l-0.5-0.5l0.3-0.3v-0.3l-1.3,0.3h-0.3v-0.5h-0.5l-0.3,0.3h-0.3v-0.5l-0.3,0.3h-0.3
		c0-0.5-0.2-0.8-0.5-0.8h-0.3l-0.3,0.3h-0.3l-0.3-0.3l-0.3,0.3v-0.5h0.5v-0.3h-0.5l-0.3-0.3l-0.3,0.3v0.3h-0.2l-0.3-1.3l0.3,0.3h0.2
		v-0.5h-0.2L123,30l-1.6-0.5v0.7h-0.3c0-0.3-0.3-0.5-1-0.5v-0.2c0.5,0,0.8-0.2,0.8-0.5v-0.3h-0.3v0.5h-0.3l-0.5-0.5v-0.3h0.8v-0.3
		h-0.8l-0.3,0.3V28l0.5-0.5h0.5l0.3,0.3h0.3l-0.3-0.3v-0.5l1.6-0.5l-0.5,0.8l0.3-0.3h0.5c0,0.3-0.3,0.5-1,0.5v0.3L123,28l1-0.3
		l1,0.3c0-0.3-0.3-0.5-1-0.5v-0.3l1.3-0.3l-0.5-0.5h-0.3l0.3,0.3v0.3c-0.7,0-1,0.2-1,0.5c-0.3,0-0.5-0.4-0.5-1.3H123v0.5h-0.3
		l-0.5-0.5v-0.5l0.3-0.3v-0.2H122v1h-0.3l-0.3-1.3h-0.5l-0.3,0.3h-0.3l-0.3-0.3v0.5h0.5v0.3h-0.8c0-0.7-0.2-1-0.5-1h-0.7v0.7
		l0.3-0.2h0.2c0,0.3,0.3,0.5,0.8,0.5v0.8h0.8v-0.8h0.8l0.3,0.8h-0.5v-0.5h-0.3v0.5l0.3,0.3h-0.5v0.3c-1-0.2-1.6-0.6-1.6-1h-0.2v0.5
		l0.2,0.8h0.3v-0.5h0.3v0.8h-0.7c0-0.9-0.3-1.3-1-1.3v-0.3h0.8v-0.3h-0.8v-0.3h0.5v-0.5l-0.8-0.3l-0.8,0.3l-1.8-0.3l-0.5,0.5
		l-0.5-0.5h-1l-0.3,0.3h-0.3v-0.5l0.5-0.5h5.4c1.5,0,3.1,0.3,4.7,0.8l0.7-0.3l5.2,0.8l14.2-1.6H143.7z M114.2,103v0.3l0.3,0.3
		L114,104l-0.3-0.3h-0.8v0.3l1.6,0.3V104l0.5-0.5v-0.3L114.2,103z M114.5,33.7l-0.3,0.3v0.2h0.5v0.3h-0.2l-1.3-0.3v-0.2L114.5,33.7z
		 M113.7,25.9h0.3c0,0.7,0.2,1,0.7,1v0.8H114v-0.3h0.5v-0.3c-0.5,0-0.8-0.2-0.8-0.5V25.9z M113.7,58.7V59l0.8,0.3h0.5V59l-1-0.3
		H113.7z M113.7,92.6h0.3l0.3-0.3l0.3,0.3l0.2-1.3h-0.2C114.2,91.4,113.9,91.8,113.7,92.6z M113.7,100.9v0.2h1v-0.2H113.7z
		 M114,28.5h0.3l0.5,0.5v0.3H114V28.5z M114.2,29.5h0.7V30l-0.3-0.3h-0.2l-0.3,0.8h0.5v0.8h-0.5l-0.3-1L114.2,29.5z M114,33.1h1v0.3
		h-1V33.1z M114,34.7h1v0.3h-1V34.7z M114,57.7l0.3,0.3v0.3l1.3-0.3v-0.3H114z M114.2,61.8l-0.3,0.3v0.3h0.3l0.3-0.3v0.5l0.2-0.3
		h0.3v0.5h0.3l0.5-0.5L114.2,61.8z M114,105.1v0.5l0.3,0.7h0.5l-0.5-1.3H114z M115.8,25.3l0.5,0.5l-0.8,1v-0.3l0.3-0.3v-0.5h-0.3
		v0.5h-0.3v-0.5H115v0.5h-0.7v-0.5l0.3,0.3h0.2C114.7,25.7,115.1,25.5,115.8,25.3z M115.5,32.4h0.5v0.3h-0.8l0.3,0.3v0.3h-0.3
		l-0.7-0.3v-0.3L115.5,32.4z M115,36.2v0.5l0.3-0.3h0.3l0.3,0.3V37l-0.5,0.8l0.3,0.3h-0.3l-0.7-0.3l0.5,0.5c1,0,1.5-0.4,1.6-1.3
		l-0.3-0.3h0.5v-0.3L115,36.2z M114.5,89.8l0.2,0.8h0.3v-0.8H114.5z M114.5,90.8v0.3l0.5,0.5h0.3v-0.5l-0.3-0.3H114.5z M115.2,104.3
		c0,0.3-0.2,0.5-0.7,0.5v0.3h0.5l0.5-0.8H115.2z M114.7,88.7l0.3,0.8h0.3v-0.8H114.7z M114.7,92.1l0.8,1.3l0.3-0.3h0.3v0.3l-0.3,1
		v0.3h0.3v-0.8h0.3v0.8h0.3v-0.5l-0.3-0.8h0.3C116.3,92.6,115.7,92.1,114.7,92.1z M115,60.6v0.3h1.3l-0.5-0.5L115,60.6z M115.2,69.6
		l0.3,1.3H115v0.3h0.5l0.3-0.3v0.8l-0.3-0.3h-0.3v0.5l0.3,0.8h0.3v-0.5l-0.3-0.3l1-0.3v0.5H116v0.3l0.5,0.5l0.3-0.3v-0.3l-0.3-1.6
		l0.3-0.8h-0.5l0.3,0.3l-0.3,0.8H116l-0.3-1.3h0.8v-0.5L115.2,69.6z M115.2,77.4l-0.3-0.3l0.5,2l0.3-0.3h0.5l-0.3,0.3v0.3l0.3,0.3
		h-0.5v0.3l1,0.3v-0.3l-0.8-1.5l0.5-0.5v-1L115.2,77.4z M115,81.3V82h0.5v-0.3L115,81.3z M115.8,81.8v0.5h0.5v0.3h-0.8l-0.3-0.3v0.3
		l0.3,0.7v0.3h-0.3v-0.5H115v0.2c0.3,1.4,0.8,2.1,1.3,2.1v-0.3l-0.3-0.3h0.5v-0.3H116l-0.3,0.3l-0.3-0.3v-0.8h0.5v-0.3l-0.3-0.7h0.3
		l0.5-0.5V82L115.8,81.8z M115,86.7v0.5l0.3-0.3h0.3v0.5h0.3V87l-0.3-0.8L115,86.7z M115.2,87.7L115,88v0.3l0.8,0.5v-0.3l-0.3-0.3
		c0.7,0,1-0.2,1-0.5l-0.3,0.2h-0.5l-0.3-0.2H115.2z M117.1,102.7c0,0.7-0.7,1-2.1,1v0.3h0.5l0.3-0.3v0.5h0.3c0-0.5,0.4-0.8,1.3-0.8
		v0.5l-0.5,0.5l-0.3-0.3h-0.3v0.5l1,0.3v-0.3l-0.3-0.3c0.5,0,0.8-0.3,0.8-0.8h0.3l1.3,0.3v-0.3l-0.3-0.3v-0.3l-1.5,0.5l-0.3-1H117.1
		z M115.5,104.8v0.3c0.5,0,0.8,0.2,0.8,0.7h-0.5l-0.8-0.2c0,0.3,0.6,0.6,1.8,0.7h0.3v-0.3h-0.8l0.3-0.3c-0.2-0.7-0.5-1-0.8-1H115.5z
		 M115.2,27.2h0.5l-0.3,0.8h-0.3V27.2z M115.2,33.9h0.5l-0.3,0.2v0.3l0.3,0.3h-0.5V33.9z M115.2,34.9h0.3l1.3,0.3v0.3l-1.3,0.3h-0.3
		l0.3-0.3v-0.3L115.2,34.9z M115.2,73v1l0.3,0.3v0.2l-0.3,0.3h0.8l0.3-0.3h0.3l-0.5,2.1l0.8-0.3l-0.3-0.8l0.3-1.5v-0.3h-1.3v-0.3
		h1.3v-0.3l-1-0.3l-0.3,0.3L115.2,73z M115.2,79.9v0.8h0.3l0.3-0.3h0.3l0.3,0.3V81h-0.8v0.3l0.8,0.3l0.3-0.8l-0.8-0.5l-0.3,0.3v-0.5
		H115.2z M116,88.5v1h-0.3V89h-0.3v0.3l0.3,0.8h-0.5v0.3h0.8v-0.5h0.3v0.8h0.3v-1l-0.3-0.3l0.3-0.3v-0.5H116z M115.2,100.7v0.3
		l0.3,0.2h0.5v-0.2L115.2,100.7z M115.5,39.1l0.5,0.5h0.3l-0.5-0.5H115.5z M115.5,77.6l0.8,0.3l-0.5,0.5l-0.3-0.3V77.6z M115.5,90.8
		v0.5l0.3-0.3l0.3,0.3h0.5v-0.5H115.5z M116.3,98.1c0,0.5-0.3,0.8-0.8,0.8v0.5l0.3-0.3h0.3l0.3,0.3c0-0.3,0.3-0.5,0.8-0.5l0.3-0.3
		v-0.3l-0.3,0.3h-0.5l0.3-0.3v-0.3H116.3z M115.8,38.8l1.3,0.3v0.3c-0.5,0-0.8,0.3-0.8,0.8h0.5l-0.3,0.3v0.3h0.3l-0.3,0.3v0.8
		l0.8,0.3v-0.3l-0.3-0.3h0.8v-0.3h-1v-0.3h1v-0.3h-0.8v-0.3h0.8v-0.3h-1v-0.3h1v-0.3h-0.8l0.5-1h-0.3l-1,0.3v-0.5L115.8,38.8z
		 M115.8,66.8l2.4-0.3v-0.3l-1.3-0.3L115.8,66.8z M115.8,84.1v0.3h0.5l0.3-0.3v-0.3L115.8,84.1z M115.8,86.2v0.3h0.3v-0.5h0.3v0.3
		l-0.3,1v0.3h0.3l0.3-1.3v-0.5h-0.3L115.8,86.2z M115.8,91.6v0.5l0.3-0.3h0.3l0.3,0.3v-0.3l-0.3-0.3H115.8z M115.8,99.9v0.5l0.3,0.3
		h0.3l-0.3-0.8H115.8z M115.8,102.5l0.3,0.8h0.3v-0.5l-0.3-0.3H115.8z M116,33.9c0.5,0.1,0.9,0.4,1,1h-1l0.3-0.3l-0.3-0.3V33.9z
		 M116.3,26.4h0.3l1,0.3v0.3l-1,0.3L116.3,26.4z M117.1,28.8V29l-0.8,0.7v-0.2L117.1,28.8z M116.5,101.7l-0.3,0.3v0.3l0.3-0.3h0.3
		l1,0.3h0.3v-0.3L116.5,101.7z M116.3,114.2h2v0.5h-1.5L116.3,114.2z M116.5,25.1h0.3l0.3,0.2h0.3l0.3-0.2l0.3,0.7h-0.5L116.5,25.1z
		 M117.3,30.3h0.5v0.3l-1.3,0.3C116.5,30.4,116.8,30.3,117.3,30.3z M116.5,59.5v0.3l1.3,0.3h0.3v-0.3l-1.3-0.3H116.5z M116.5,61
		l0.3,0.8h0.3v-0.5l-0.3-0.3H116.5z M116.5,99.6l0.3,0.3v0.3l-0.3,0.3h0.3l0.3-0.3h0.3l0.5,0.5h0.3v-0.3l-1.3-0.8H116.5z
		 M116.5,100.7v0.3h0.5l-0.3,0.2v0.3l1.6-0.3v-0.2l-1.6-0.3H116.5z M116.8,27.2h1v0.3h-0.8v0.3h0.5v0.8l-0.8-0.3V27.2z M116.8,31.8
		h0.5l0.3,0.8h-0.5L116.8,31.8z M117.1,45l-0.3,0.8l1.3,0.3l-0.3-0.3v-0.3l0.3-0.3l-0.3-0.3h-0.3l-0.3,0.3L117.1,45z M116.8,46.9
		l0.3,0.3l-0.3,0.3v0.7l1-0.3v-0.3h-0.8l0.3-0.7l0.3,0.3h0.3l-0.3-0.8h-0.3L116.8,46.9z M116.8,48.6v0.5h0.5l0.5-0.5H116.8z
		 M116.8,49.4v0.8l0.5,0.5h0.5V50h-0.3v0.5h-0.5l0.3-0.3l-0.3-0.8H116.8z M117.1,62.1l-0.3,0.8v0.3h0.3l0.3-0.8v-0.3H117.1z
		 M117.1,37.5v0.3l1,0.3v-0.3l-0.3-0.3H117.1z M117.3,56.4v0.2h0.8v-0.5L117.3,56.4z M117.3,58.2v0.3h0.8V58L117.3,58.2z
		 M117.3,63.4h0.5l0.5-0.5h-0.5L117.3,63.4z M119.6,96.3l-0.3-0.3v0.3l0.5,0.5l-0.3,0.3h-0.3l-0.3-1h-1.8c0.5,0.4,0.8,0.8,0.8,1.3
		h0.3v-0.5l0.3,0.3h0.3v-0.5h0.2l0.3,0.7h-0.5v0.5c0.7-0.3,1-0.6,1-1l0.5,0.5l-0.3,0.3l0.3,0.3v0.3l-0.3,0.3v0.3l0.3,0.3h0.3v-0.3
		l-0.3-0.3h0.3l1,0.8v-0.3c-0.3,0-0.5-0.4-0.5-1.3h-0.3v0.5h-0.3v-0.5l0.3-0.8l-0.3-0.2h0.5l-0.3-0.3V96l0.3-0.3h-0.3L119.6,96.3z
		 M117.9,51.3l-0.3,0.7h0.3l0.3-0.2v-0.5H117.9z M117.6,60.8l0.3,0.2v0.3l-0.3,0.3l0.3,0.3l-0.3,0.3h0.3l0.3-0.3v-1H117.6z
		 M117.6,102.5v0.3l0.5,0.5h0.3l0.5-0.5h-0.3l-0.3,0.3l-0.5-0.5H117.6z M118.4,104l-0.3,0.8h0.5v0.3h-1v0.3l1,0.5l0.3-1l-0.3-0.8
		H118.4z M117.9,27.4h1l-0.8,0.8L117.9,27.4z M117.9,97.8v0.8l0.3,0.3l-0.3,0.3h0.5l-0.3-1.3H117.9z M118.1,28.5h0.3V29h0.3l0.3-0.3
		h0.2v0.8l-1-0.3V28.5z M118.1,31.6h0.3v0.5h0.3v-0.5h0.3v0.8h-0.8V31.6z M118.1,33.1h0.8l-0.3,0.8h-0.5l0.3-0.3v-0.3L118.1,33.1z
		 M118.4,101.7v0.3c0.3,0,0.9,0.4,1.5,1.3h0.3V103l-0.3-0.3h0.5v-0.3l-0.5-0.5v0.5h-0.3c-0.3,0-0.5-0.3-0.5-0.8H118.4z M118.9,83.1
		l0.7,0.2v0.3l-1,0.3v-0.3l0.3-0.3V83.1z M118.9,34.4h1v0.3h-1V34.4z M118.9,77.9h0.2l0.5,0.5h-0.3L118.9,77.9z M119.4,97.8l0.3,0.3
		v0.3h-0.3l-0.3-0.3h-0.2v0.3c0.2,0.9,0.5,1.3,0.7,1.3h0.3v-0.3h-0.5v-0.3h0.5v-0.3h-0.5l0.5-0.8v-0.3H119.4z M118.9,99.6v0.5l0.5,1
		h-0.5v0.3h0.2l1-0.3l-0.3,0.3v0.3h0.3l0.8-0.3v-0.3h-0.5v-0.2h0.5l1,0.2h0.3v-0.2h-0.8v-0.3l1.6-0.3v-0.3l-0.5-0.5h-0.3
		c0,0.5-0.3,0.8-0.8,0.8l-1.8,0.5h-0.3v-0.3h0.8v-0.3c-0.7,0-1-0.3-1-0.8H118.9z M120.9,72.5l0.5,1.6h-0.3c-0.3,0-0.5-0.3-0.5-0.8
		h-0.5v0.5h-0.3l-0.8-0.8L120.9,72.5z M120.4,104.6c0,0.3-0.3,0.5-1,0.5l-0.3,0.3v0.3c1.2-0.3,1.8-0.7,1.8-1H120.4z M120.2,33.1h0.8
		v0.3l-1.3,0.7h-0.3l0.3-0.7l0.3,0.3h0.3V33.1z M119.4,77.4l1.6,0.5v0.3l-1,0.3l-0.5-0.5V77.4z M120.4,109.4c0.5,0.1,0.8,0.5,1,1.3
		c-0.3,0.8-0.7,1.2-1,1.3l-1-1v-0.7C119.4,110,119.7,109.7,120.4,109.4z M119.4,112.2h0.3l1.3,0.3l0.3-0.3v2h0.5l1.7-2h1.3
		c0.5,0,0.7,0.3,0.7,0.9h0.3v-0.9c1.2,0.2,1.8,0.5,1.8,0.7v1.3h0.2l0.3-0.2h0.3l0.3,0.2v0.3H128v0.3c-1.7-0.2-2.8-0.5-3.1-0.7h-0.2
		c-0.6,0.4-1.3,0.6-2.3,0.7v-0.3l-0.2,0.3h-0.3l-2.3-0.3h-0.3V112.2z M120.7,102.7c0,0.5-0.3,0.8-0.8,0.8l-0.3,0.8h0.5
		c0.1-0.7,0.4-1,0.8-1l0.3,0.3l-0.3,0.3v0.5l1,0.3V104h-0.5v-0.3h0.5v-0.3h-0.5l0.3-0.3V103l-0.3,0.3h-0.5v-0.5H120.7z M119.9,34.1
		h1v0.3h-1V34.1z M119.9,71.4h0.8l-0.3,0.8l-0.5-0.5V71.4z M120.4,66.8l-0.3,0.8h0.3l0.5-0.5l0.3,0.3h0.5l-0.5-0.5H120.4z
		 M120.7,84.1l0.3,0.3v0.3h-0.8L120.7,84.1z M121.2,54.3v0.5h-0.8v-0.3L121.2,54.3z M120.4,56.4h0.3l1.8,0.2v0.3h-1.6L120.4,56.4z
		 M120.4,74.3l1.3,0.2c-0.2,0.7-0.6,1.2-1.3,1.3v-0.5h0.5v-0.5h-0.5V74.3z M120.4,99.6v0.8h0.3l0.5-0.5v-0.5L120.4,99.6z
		 M120.9,30.5l0.8,0.3v0.3h-0.8V30.5z M120.9,78.7h0.3l0.5,0.5v0.3h-0.8V78.7z M121.7,75.6l0.5,0.5l0.3-0.3h0.3v0.5l-0.8,0.3
		l-0.5-0.5v0.5h-0.3v-0.8l0.3-0.3H121.7z M121.2,97v0.3l0.3-0.3h0.3l0.3,0.3l-0.3-0.7L121.2,97z M121.5,33.7l0.3,0.3l0.8-0.3h0.3
		v0.3h-0.5v0.2h0.5v0.3l-1,0.3L121.5,33.7z M121.5,59.3h1v0.5l0.3,0.3l-0.5,0.5v0.3l-0.3-0.3h-0.3l0.5-1H122l-0.3,0.3l-0.3-0.3V59.3
		z M121.5,60.8l1.3,1h-0.5l-0.8-0.8V60.8z M121.5,99.4v0.3h0.5l0.3-0.3v-0.3L121.5,99.4z M121.5,101.4c0.1,0.5,0.5,0.8,1.3,1h0.3
		v-0.3h-0.5v-0.3h0.5v-0.3L121.5,101.4z M121.7,96v0.3l1.3,0.3V96l-0.3,0.3L122,96H121.7z M122,30h0.8l-0.5,0.5H122V30z M124.6,97
		c0,0.7-0.7,1-2,1v0.3l1.5,0.3v0.3h-0.3l-1-0.3H122v0.3h1.3l-0.3,0.3v0.5h1l-0.3-0.3v-0.3l0.3-0.3h0.5v0.5h0.3v-0.5h0.3
		c0,0.5,0.2,0.8,0.5,0.8h0.3v-0.8h-0.5l0.5-0.5l0.3,1h0.8v-0.3h-0.5v-0.3h0.5l-0.3-0.8h-0.3v0.5l-0.8-0.5l-0.3,0.3h-0.3v-0.5
		l-0.3,0.3h-0.3v-0.5h0.5L124.6,97z M122.5,97l-0.5,0.5v0.3h0.5L123,97H122.5z M122.3,31.6h0.5l-0.3,0.8h-0.3V31.6z M123.3,57.4
		l0.7,0.3V58l-1.8,0.3C122.3,57.8,122.6,57.5,123.3,57.4z M122.8,60.6h0.3l-0.5,0.5h-0.3L122.8,60.6z M124.3,61.6h0.8v0.3
		c-0.7,0-1,0.2-1,0.5v0.3l-0.3-0.3h-0.2l-1.3,0.3v-0.5L124.3,61.6z M122.3,69.8h1l0.3,0.3l0.2-0.3l1.8,0.3h2.8v0.8l-1.3-0.3
		l-0.3,0.3v0.3l-1.6-0.5v0.3C123.3,70.5,122.3,70.2,122.3,69.8z M122.5,103.2l-0.3,0.8h0.3l0.5-0.8H122.5z M122.3,105.6v0.7h0.8
		v-0.3l-0.5-0.5H122.3z M123.3,30.3v0.5h-0.8v-0.3L123.3,30.3z M123.3,99.9c0,0.8-0.3,1.3-0.8,1.3v0.3h0.3l1.5-0.3l-0.3,0.3v0.3
		l0.8,0.3h0.3v-0.3c-0.5,0-0.8-0.2-0.8-0.7h1v0.2h-0.5v0.3h0.3l0.8-0.3v-0.2h-0.5v-0.3h0.8v-0.3h-0.3l-1.3,0.3l-0.3-0.3h-0.5v0.3
		h0.5v0.3h-1c0-0.5,0.2-0.8,0.7-0.8v-0.3H123.3z M123.6,33.1v0.3l-0.3,0.3l0.5,1h-1v-0.3h0.5v-0.3h-0.5L123.6,33.1z M123.3,101.9
		c0,0.5-0.2,0.8-0.5,0.8v0.3h0.5l0.3-0.3v0.5h0.7V103h-0.5v-0.3h0.5l-0.3-0.8h-0.3v0.8h-0.2v-0.8H123.3z M122.8,104.8l0.5,1.3
		l1.3-0.3v-0.2h-0.3l-0.7,0.2l0.2-0.2v-0.8h-0.2l-0.3,0.3H123L122.8,104.8z M123,58.2h0.3l0.7,0.3v0.3h-0.7l-0.3-0.3V58.2z
		 M123,59.3c1,0.3,1.5,0.7,1.5,1v0.3h-0.8c0-0.5-0.2-0.8-0.7-0.8V59.3z M124,64.7v0.5h-1V65L124,64.7z M123.3,44.2h0.7v0.5h-0.7
		V44.2z M123.3,96v0.3c0.5,0,0.7,0.3,0.7,1h0.3l0.5-1l-0.3-0.3h0.3c0.5,0,0.8,0.4,0.8,1.3h0.3v-0.7l-0.3-0.3h0.3l2.3,0.3l0.5-0.5
		l1.3,0.3h0.5l-0.3-0.3v-0.3l-0.8,0.3l-0.3-0.3l-2.3,0.5l-2.1-0.5L123.3,96z M123.3,103.8v0.3h0.5l0.3-0.3v-0.3L123.3,103.8z
		 M123.6,32.4l0.5,0.5v0.3h-0.5V32.4z M123.8,28v0.3l0.5,0.5V28H123.8z M123.8,66.5l1.6,0.3v0.5l-0.3-0.3h-0.3l-0.3,0.3l-0.8-0.3
		V66.5z M124,62.6h0.3l0.5,0.5H124V62.6z M124.3,75.3l0.8,0.3v0.3h-0.8V75.3z M124.6,32.1h0.8v0.3l-0.8,0.3V32.1z M124.6,102.2
		l0.3,0.3v0.3l-0.3,0.8h0.5l-0.3-0.3V103l0.8-1L124.6,102.2z M124.8,103.8v0.3h0.3l0.8-0.3c0,0.3-0.4,0.5-1.3,0.5v0.5l1.6-0.5V104
		l-0.5-0.5L124.8,103.8z M125.1,105.1l-0.5,1.3h0.5l0.3-1v-0.3H125.1z M125.3,33.9h0.3v0.7h-0.8v-0.3L125.3,33.9z M124.8,60.1h1.3
		v0.3h-1.3V60.1z M125.1,99.9l-0.3,0.3v0.3l0.8-0.3v-0.3H125.1z M125.3,28.8l-0.3,0.8l1,0.2l0.8-0.2V29l-1-0.3l-0.3,0.3L125.3,28.8z
		 M125.6,58.2h0.3l-0.8,0.8v-0.3L125.6,58.2z M125.3,33.4h1v0.5l-1-0.3V33.4z M125.3,65.4h0.5l-0.3,0.3V66l0.3,0.3h-0.5V65.4z
		 M126.1,61.3h0.3l-0.3,0.3v0.3h0.3v-0.3l0.8,0.3v0.8c-1-0.2-1.6-0.5-1.6-0.8L126.1,61.3z M129.2,99.9c0,0.5-0.2,0.8-0.5,0.8l-1-0.3
		h-0.3v0.3h0.5v0.3h-0.5l-0.8-0.3v0.5l-0.3-0.2h-0.3v0.2l0.3,1l-0.3-0.3h-0.3v0.3l0.3,0.3h-0.5v0.8h0.3v-0.5h0.3v0.8l0.3-0.3h0.3
		l0.8,0.3v-0.8h0.5l-1.3,2.1l-0.3-0.3h-0.5l0.3,0.3v0.3l-0.3,0.3c0.3,0,0.5,0.3,0.5,1h0.5l-0.5-1.3h0.3l0.3-0.3h0.3v0.3l-0.3,0.3
		v0.5h0.3l0.5-0.5v-0.3l-0.3-0.3v-0.3l0.5-1.3h0.5l-0.3,0.3v0.3l0.3,0.3H128v0.3l0.2,0.8h0.3l0.3-1.3l-0.3-0.3h0.3l0.3,0.3h0.3v-0.5
		l-0.3-0.8l0.3,0.3h0.3v-0.3l-0.3-0.3h0.8v-0.3h-0.5l0.3-0.3v-0.3h-0.3l-0.3,0.3v-0.5l-0.3-0.2l0.3-0.3h0.5l-0.3-0.8H129.2z
		 M125.9,28v0.3h1.3V28H125.9z M126.7,60.3c0.1,0.7,0.8,1,2,1v0.3l-1.3,0.3v-0.3l-1.3-1l0.3-0.3H126.7z M126.1,83.1l0.8,0.7h-0.3
		l-0.5-0.5V83.1z M126.1,97.3v0.3c0.5,0,0.8,0.3,0.8,0.8h0.3v-0.8h-0.5l0.3-0.3V97L126.1,97.3z M126.4,62.6h0.5l-0.3,0.3v0.3
		l0.3,0.3h0.3l1-0.3l0.3,0.3v0.3h-0.3l-0.2-0.3l-0.3,0.3h-0.8l-0.5-0.5V62.6z M126.9,56.2l0.8,0.3v0.2l-1,0.3v-0.3l0.3-0.2V56.2z
		 M126.7,67.5h0.3l0.3,0.3l0.3-0.3h0.3l2,0.5l0.5-0.5h0.3l0.5,0.5l-1.8,0.5C127.5,68.1,126.7,67.8,126.7,67.5z M126.7,87h0.3
		l0.5,0.5h-0.3L126.7,87z M126.7,101.4h0.5l0.8,0.3v0.8h-0.3l-0.8-0.3l0.3-0.3v-0.3h-0.5V101.4z M126.9,83.1h0.8v0.5h-0.3
		L126.9,83.1z M127.2,98.8l0.3,0.3v0.3l-0.5,0.5h0.3l1-0.3v-0.3h-0.5l0.3-0.3v-0.3H127.2z M128.2,100.9c0,0.3,0.3,0.5,0.8,0.5v0.8
		h-0.5l0.3-0.3v-0.3h-0.3l-0.3,0.3c0-0.3-0.2-0.5-0.7-0.5v-0.3L128.2,100.9z M130.5,97l0.3,0.3v0.3h-0.3l-0.3-0.3H130
		c0,0.3-0.5,0.6-1.6,0.8v0.3h0.5v0.3h-0.5l-0.3-0.3h-0.5v0.3c0.5,0,1,0.3,1.5,1h0.8l-0.3-0.3v-0.3l1-0.3l-0.3-0.3v-0.3l1-0.3v-0.3
		h-0.8l0.3-0.3V97H130.5z M128,25.6h0.7l-0.7,0.8V25.6z M128.4,32.9h0.3v0.5H128L128.4,32.9z M128,99.9v0.3l0.7,0.3v-0.3l-0.3-0.3
		l0.3-0.3L128,99.9z M128.2,97v0.8l0.8-0.3V97l-0.3,0.3h-0.3L128.2,97z M131,28.2c0,1.2,0.3,1.8,0.8,1.8v-0.7h0.3v0.5l0.3-0.2h0.7
		v0.7l-0.3-0.3h-0.3l-0.5,0.5l-0.8-0.3l-1.3,0.5h-0.3v-0.3h0.5c-0.1-0.7-0.7-1-1.8-1v-0.3L130,29v0.5h0.8v-0.3l-0.3-0.8l0.3-0.3H131
		z M129,54.3h0.3v0.5h-0.8L129,54.3z M129.5,26.4v0.5h-0.8v-0.3L129.5,26.4z M128.7,83.3l0.5,0.5v0.3l-0.5-0.5V83.3z M130.5,25.6
		l0.3,0.3v0.3h-0.5l0.5,0.5l0.3-0.3v0.5l-1.3-0.3l0.3-0.3v-0.3h-0.5l-0.3,0.3H129v-0.5L130.5,25.6z M129,65.7l1,0.3v0.3h-1V65.7z
		 M130.3,97.8c0,0.3-0.3,0.5-0.8,0.5h-0.3v-0.3L130.3,97.8z M129.5,54.3h1.3l-0.5,0.5h-0.8V54.3z M129.5,104.6v0.8h0.5v-0.3
		L129.5,104.6z M129.5,114.2h5.6v0.5h-5.6V114.2z M130,34.4v0.8h0.3l1-0.5c0,0.3,0.3,0.5,0.8,0.5l1.3-0.3v-0.5l-0.3,0.3h-0.3v-0.3
		l-0.7,0.3l-1-0.3l-0.8,0.3L130,34.4z M130.3,99.6v0.8h0.5l-0.3-0.8H130.3z M131.3,26.4l1,0.3v0.3l-1,0.3l0.5,0.8v0.3l-1.3-0.8v-0.3
		C131,27.2,131.3,26.9,131.3,26.4z M130.5,33.7v0.5l0.5-0.5l0.3,0.3h1.3v-0.3l-1.3-0.3L130.5,33.7z M130.5,40.9h1.3v0.5h-0.3
		l-0.3-0.3H131l-0.3,0.3l-0.3-0.3V40.9z M131,104l-0.3,0.3v0.5h0.3c0-0.3,0.3-0.5,0.8-0.5V104H131z M131,25.6h0.8v0.5h-0.3L131,25.6
		z M131.3,70.9l-0.3,0.3l0.5,1.3l-0.3,0.3V74l0.3,0.3L131,75l0.3,0.8h0.8c0-0.7,0.8-1,2.3-1v0.8l-0.3-0.3h-0.3l-0.3,1h0.5l-0.3-0.3
		v-0.3l1-0.3v0.3l-0.3,0.3v0.5h0.3v-0.5l0.5,0.5l-1,0.3v0.3h0.5v0.3h-0.5v0.3h0.5v0.3h-0.8v-0.8h-0.3v0.5h-0.3c0-0.8-0.3-1.4-1-1.8
		v0.3l0.3,0.3l-0.3,0.3h0.5v0.3h-0.7v-0.8h-1l-0.3,1.3l0.5,1.3H131l0.5,1.8L131,81l0.3,1.6l-0.3,1l0.3,0.3h0.3v-0.3l0.3,0.3h0.3
		l0.3-0.3l0.2,0.3h0.3c0.3,0,0.5-0.3,0.5-1l0.5,0.5l-0.3,0.3v0.3h0.3l0.8-0.3l1.6,0.3l0.5-0.5l-0.5-0.5v-0.3h0.5v-0.3h-0.5l-0.3,0.3
		l-0.3-1.3L136,81h-0.5l0.3-0.3v-0.3c-0.3,0-0.6-0.6-0.8-1.8h0.5l-0.3-1.3h0.5l0.3,0.3h0.3v-0.3l-1-0.3v-0.3c0.5,0,0.8-0.3,0.8-0.8
		h0.3v0.5h0.5l0.5-1h-0.5l-0.5-0.8l-0.8,0.3l0.3-0.3v-0.3h-0.3l-0.8,0.3h-0.3v-0.3h0.5v-0.2l-1.6-0.3c0,0.3-0.5,0.7-1.5,1.3h-0.3
		l0.5-0.8l-0.3-0.2l0.3-0.3l-0.5-0.5v-0.3l1.3,0.3h0.3v-0.3c-0.5,0-0.7-0.4-0.7-1.3h0.7l-0.3,0.3v0.3c0.6,0.1,1.3,0.6,2.1,1.6l1,0.5
		c0.5,0,0.8-0.2,0.8-0.7h0.3l0.2,0.7h-0.5V75l0.7-0.5h0.3l0.3,0.8h-0.5v0.5l0.3-0.3h0.3l1,1.8h-0.5v-0.5H138l0.3,0.3v0.3
		c-1.2,0.2-1.8,0.6-1.8,1l-0.3-0.3h-0.5v0.3h0.5l0.3,0.3l0.3-0.3v-0.3l0.7,0.3h0.5v-0.3h-0.8v-0.3l1.3-0.3h0.3v0.3h-0.5v0.3h0.5v0.7
		c-0.4,0-0.9,0.4-1.6,1.3l0.3-0.3h1.3v0.3h-0.5v0.3h0.5v0.3h-0.5l0.3,0.8l0.3-0.3h0.3v0.5h0.3V81l-0.5-1.3l0.5-0.5l-0.3-1.3l0.3-1.3
		l-0.3-0.3l0.3-0.3h-0.5v-0.5h0.5l-0.3-1.3l0.3-1l-0.3-0.8h-0.3v0.3l0.3,1l-0.8,0.3v0.3h0.5l-0.3,0.2v0.3l0.3,0.8h-0.5
		c0-1.2-0.3-1.8-1-1.8v-0.3h0.8l0.3,0.3h0.3v-0.3l-1-0.8l0.3-0.3v-0.3h-0.3l-0.3,0.3v-0.5l1.6-0.3v-0.3H138l-0.8,0.3l-1-0.3
		l-0.5,0.5l-0.3-0.3c-0.5,0-0.8,0.3-0.8,1c-0.7-0.2-1.4-0.7-2.1-1.6L131.3,70.9z M131.3,96v0.5l1.5-0.5l0.3,0.3v-0.5L131.3,96z
		 M131.3,99.9v0.5l1-0.5v0.5l0.7-0.3l-0.5-0.5L131.3,99.9z M131.3,100.9v0.2l1.3,0.3h0.3v-0.3l-1-0.2H131.3z M132.1,104.3
		c0,0.9-0.2,1.3-0.5,1.3h-0.3v0.2h0.8l0.3-0.2c0,0.4,0.3,0.6,1,0.7v-0.3l-0.8-0.3l0.3-0.2v-0.3h-0.5v-0.8h0.7v-0.3H132.1z
		 M131.6,57.2h0.3l1.3,0.3V58l-1.5-0.3V57.2z M131.6,71.2h0.3l0.3,0.8h-0.5V71.2z M131.6,79.4h0.8l-0.5,0.5h-0.3V79.4z M134.7,80.5
		l-0.3,0.3v0.8h0.5l-0.3,0.3V82l0.3,0.3l-0.3,0.3h0.3l0.3-0.3h0.3l0.3,0.8l-0.3,0.2l0.3,0.3c-1.2,0-1.8-0.3-1.8-1l-1.3,0.3h-0.2
		v-0.3h0.5v-0.8l-1.3-0.3v-0.3h0.3l1.3,0.3l-0.3-0.3V81l0.3-0.3h0.5l-0.3,0.3v0.3h0.8l-0.3-0.3v-0.3l0.3-0.3H134.7z M131.6,82.8h0.3
		l0.5,0.5v0.3h-0.5L131.6,82.8z M131.8,96.8l-0.3,0.3v0.3h0.3l0.3-0.3v0.5h0.3l0.5-0.5h-0.3l-0.2,0.3L131.8,96.8z M133.1,25.6v0.5
		h-0.5l0.3,0.3v0.3h-0.3l-0.7-0.3C131.8,26.1,132.3,25.9,133.1,25.6z M131.8,42.7l1.5,0.3v0.2h-1.5V42.7z M132.6,78.7h0.8v0.7h0.8
		v-0.3h-0.5v-0.3l0.8-0.2v0.7l-0.5,0.5l-0.3-0.3h-0.3l-0.3,1h-0.3v-0.5h-0.3v0.5l-0.7-0.3c0-0.3,0.3-0.5,1-0.5l0.3-0.3v-0.3h-0.5
		v-0.3h0.5v-0.3h-0.5V78.7z M132.8,26.9h0.3v0.8h-0.5l0.5,1h-0.5V29h0.5v0.3h-0.7l-0.3-1L132.8,26.9z M132.1,102.7v0.5l0.3,0.3h0.2
		l-0.2-0.8H132.1z M132.4,64.7l0.7,0.3v0.5l-0.7-0.2V64.7z M132.6,77.1h0.5l-0.3,0.3v0.3l0.3,0.8h-0.7l0.2-0.3v-0.3h-0.2L132.6,77.1
		z M132.6,59.3h1.3v0.3h-1.3V59.3z M132.8,46.9l0.3,0.7h0.8l-0.8-0.7H132.8z M133.1,47.9l-0.3,0.3v0.5h1v0.3c-0.5,0-0.8,0.2-0.8,0.5
		c0.3,0,0.5,0.3,0.5,0.8h0.5v-0.8h0.8c-0.3,0.7-0.7,1-1,1v0.3c0.7,0,1,0.3,1,0.8l0.3-0.3h0.5V52h0.3v-0.7l0.3,0.3h0.3L137,51
		l-0.3-0.3v-0.3l0.5-0.5l-0.2-0.3l1-0.3v-0.3l-0.8-0.3h-0.5v0.3h0.7v0.3c-1,0-1.5,0.3-1.5,0.8l0.3,0.3l-0.3,0.3h0.8V51H136l-1-0.3
		v-0.5l0.5-0.8c-0.5,0-0.8-0.3-0.8-0.8h-0.8v-0.3h0.8v-0.3h-0.8l-0.8,0.3l0.3-0.3v-0.3H133.1z M132.8,51.3l0.3,1.3h0.3v-1l0.3,0.3
		h0.5v-0.3L132.8,51.3z M132.8,63.1h0.8l-0.5,0.5l-0.3-0.3V63.1z M132.8,91.6h1v0.5h-1V91.6z M133.4,25.6l0.8,0.3v0.3l-1,0.3
		L133.4,25.6z M133.1,27.7h0.8V28l-0.8,0.3V27.7z M133.4,81.5l-0.3,0.3v0.5h1.3V82h-1v-0.3h0.8v-0.3H133.4z M133.9,97.8
		c0,1-0.3,1.6-0.8,1.6l0.3,0.8h0.3c0-0.5,0.3-0.8,0.8-0.8v-0.3h-0.5v-0.3h0.8v0.5h0.3l0.3-1l-0.3,0.3h-0.8v-0.8H133.9z M133.1,97.8
		l0.3,0.8h0.3v-0.8H133.1z M133.1,100.9v0.2h0.8l0.3-0.2v0.5l1.8-0.3v-0.2h-1.3l-0.3,0.2l-0.3-0.2v-0.3L133.1,100.9z M133.9,28.5
		l0.3,0.3V29h-0.8L133.9,28.5z M134.4,32.9c0,0.5-0.3,0.8-1,0.8v0.5h0.5l-0.3,0.3v0.5h0.5l1-0.3l0.8,0.3l1-0.3l0.2,0.3h0.3l0.8-0.3
		v-0.3c-0.3,0-0.5-0.2-0.5-0.7H137v-0.3l1.5-0.3v-0.3h-0.8l-1,0.3l-0.8-0.3l-1.6,0.5l0.3-0.3v-0.3H134.4z M133.4,92.9h0.3l0.5,0.5
		h-0.8V92.9z M133.4,101.9v0.3h0.3l1-0.3v-0.3h-0.5L133.4,101.9z M133.6,105.1l-0.3,0.7h0.3l0.3-0.2v0.5h1.3v-0.3
		c-0.9,0-1.3-0.2-1.3-0.7H133.6z M134.4,25.6h0.5c0,0.5,0.3,0.8,1,0.8v0.3h-0.8v0.3h0.5v0.3h-1v0.3h1.6l-0.3,0.8l-0.8-0.3h-0.3v0.3
		h0.5l-0.5,0.8v0.3h0.8v0.3l-1,0.2l-0.3-0.7l0.3-1l-0.8-1.6l0.8-0.3l-0.3-0.3V25.6z M136.2,33.1l0.5,0.8h-0.5v0.2h0.8l0.2-0.2h0.3
		l0.3,0.7h-0.3l-0.3-0.3H137l-1.3,0.3l-0.5-0.5h-0.5l-0.3,0.3h-0.3l-0.3-0.3v-0.2L136.2,33.1z M133.9,46.9v0.3h1v-0.3H133.9z
		 M134.1,52v0.3c0.5,0,0.8,0.3,0.8,0.8h-1v0.3h0.5l-0.3,0.3v0.3h0.3c0.3-0.1,0.7-0.5,1-1.3l-1-0.5H134.1z M133.9,54.9v0.3h1l0.3-0.3
		v-0.3h-0.3L133.9,54.9z M133.9,86.7l0.5,0.5v0.3l-0.5-0.5V86.7z M134.7,102.7v0.5l-0.3-0.3h-0.3v0.5l1,0.3l-0.3-1H134.7z
		 M134.7,104.8v0.3l0.3,0.3h0.5v-0.3L134.7,104.8z M134.9,25.3h1v0.3h-1V25.3z M134.9,75h0.3c0.3,0,0.5,0.3,0.5,0.8v0.3h-0.3
		L134.9,75z M134.9,97.8v0.3l0.5,0.5h0.3v-0.8H134.9z M135.2,64.2h1v0.3h-1V64.2z M136,73.5V74h-0.8v-0.3L136,73.5z M135.2,102.7
		v0.5l1,0.3v-0.3L136,103h0.5v-0.3h-0.3l-0.8,0.3L135.2,102.7z M135.4,114.2h0.7v0.5h-0.2L135.4,114.2z M135.4,37h0.3l0.5,0.5v0.3
		h-0.8V37z M136.5,54.3h0.5l0.7-0.5h0.3v0.5h0.3l0.8-0.5h0.5l0.5,0.5v0.3l-0.8,0.3l-1.3-0.3l-1,0.3l-0.8-0.3v0.3l-0.3-0.3h-0.5v0.5
		h0.5l2.3-0.3l0.8,0.3l1.3-0.3h0.3v0.3h-0.8v0.3h0.8v0.3l-0.8,0.3l-0.3-0.3v0.8h1.3v-2.1l-1-0.5h-0.3v-0.3h1v-0.3h-0.8V53h1v-0.3
		l-0.5-0.5c-0.5,0.7-1.7,1.2-3.6,1.6l-0.3,0.3V54.3z M135.4,53.6l2.3-0.3V53l-1.3-0.3L135.4,53.6z M135.7,79.7l0.8,1.6l-0.3,0.3h0.3
		L137,81l0.2,0.3v-0.5h-0.7v-0.3l0.3-0.3v-0.3l-0.3-0.3l0.3-0.3L135.7,79.7z M136,95.8l-0.3,0.3v0.3h0.3l0.8-0.3v-0.3H136z
		 M136.5,28.2h0.5l-0.3,0.8h-0.5L136.5,28.2z M136.2,42.2h0.8v0.5h-0.3L136.2,42.2z M136.2,58.5h0.3l0.7,0.3v0.5
		C136.6,59,136.2,58.7,136.2,58.5z M136.2,105.3v0.3l0.3,0.2l-0.3,0.3h0.5v-0.3L136.2,105.3z M136.4,114.2h1.2l-0.5,0.5l-0.7-0.3
		V114.2z M136.5,26.1h0.7v-0.5H137L136.5,26.1z M137.2,30.8v0.5h-0.7v-0.3L137.2,30.8z M136.5,47.6h0.5l1.3-0.5l1.3,0.3l0.3-0.3
		v-0.3h-0.5l-0.3,0.3l-0.3-0.3H138C137,46.9,136.5,47.2,136.5,47.6z M136.5,77.1v0.5c0.8-0.2,1.3-0.6,1.3-1.3
		C137.3,76.9,136.9,77.1,136.5,77.1z M137,78.7v0.2h1v-0.2H137z M137.8,94.4v1l0.3,0.3V96h-1v0.3h1l0.3-0.3v-0.3l-0.3-0.3h1V95
		l-0.3,0.3H138v-0.8H137.8z M137.2,104l-0.2,0.3v0.3l0.7-0.3V104H137.2z M139.1,28.5l0.8,0.3V29c-0.5,0-0.8,0.2-0.8,0.5l0.3,0.2
		h-0.5V30l0.3,0.8l-1-0.3v-0.3h0.5v-0.7l-1.3,0.2c0-0.3,0.5-0.6,1.6-0.7v-0.5H139.1z M137.2,82.3v0.3l0.8,0.7v0.3h0.3v-0.3
		C138.1,82.7,137.8,82.4,137.2,82.3z M137.5,30.5h0.5l0.3,0.8h-0.5L137.5,30.5z M137.8,26.4h1v0.3h-0.5v0.3h0.5v0.3H138l-0.3-0.3
		V26.4z M137.8,48.6v0.3c0.5,0,0.8,0.2,0.8,0.5l1-0.8H137.8z M138.8,85.9v0.5l0.3,0.3h-0.3l0.3,0.3v0.5c-0.7,0-1-0.3-1-1h-0.3v1h1
		v0.3H138V88l1,0.5l0.3-0.3v-1l-0.3-1.3H138.8z M137.8,88.5v0.8l0.8-0.3v-0.3L137.8,88.5z M137.8,90.6v0.8h0.5l-0.3-0.3v-0.3
		l0.3-0.3H137.8z M139.1,90.8l-0.5,1l0.3,0.3h-1v0.5l0.3-0.3h0.8l-0.3,0.3l0.3,0.3v0.3l-0.3,1.3h0.5l-0.3-0.3l0.3-0.3v-1.8l-0.3-0.3
		v-0.3l0.5-0.5v-0.3H139.1z M139.5,114l0.2,0.2h0.5l0.3-0.2l0.2,0.2h0.3l1-0.2l0.2,0.2l1.3-0.2h0.8v0.5h-2.8l-0.3,0.3l-0.2-0.3h-0.5
		l-0.3,0.3l-0.3-0.3l-1.3,0.3H138v-0.5h1.2L139.5,114z M138,27.7h0.3l0.8,0.3v0.3l-1,0.3l0.3-0.3V28L138,27.7z M138.3,49.7l0.3,0.3
		v0.3H138v0.3c0.7,0,1,0.3,1,0.8l1.3-0.3l-0.3,0.3v0.3h0.5l0.3-0.8l-0.3-1l-1.6,0.3L138.3,49.7z M138.3,71.9v0.8h0.3l0.5-0.5v-0.3
		H138.3z M138.3,81.8l0.8,1.8h0.3v-0.3c-0.2-1-0.4-1.5-0.8-1.5H138.3z M138.3,84.3v0.3c0.5,0,0.8,0.3,0.8,0.8h0.3v-0.5l-0.3-0.8
		L138.3,84.3z M139.1,31.1h0.3l-0.5,0.5h-0.3L139.1,31.1z M138.5,51.8c0,0.3,0.3,0.5,0.8,0.5h0.3V52L138.5,51.8z M138.5,52.5v0.3h1
		v-0.3H138.5z M140.1,47.4v0.2l0.3,0.3l-1.6,0.3v0.3h0.3c1.2-0.2,1.8-0.4,1.8-0.8L140.1,47.4z M138.8,67.8v0.3l1,0.3v-0.5H138.8z
		 M139.1,99.4v0.3l1,0.3v-0.3l-0.3-0.3H139.1z M139.1,100.9v0.2h0.5c0,0.5,0.2,0.8,0.5,0.8h0.3l-0.3-0.3v-0.3l0.3-0.3h-0.3l-0.3,0.3
		l-0.5-0.5H139.1z M139.8,26.4h0.5l-0.5,0.5h-0.5L139.8,26.4z M141.4,28.8l-0.3,0.3v0.3l0.3-0.3h0.5v0.5h0.5V29h-0.5v-0.3h0.8
		c0,0.5,0.3,0.8,0.8,0.8c0,0.3-0.6,0.6-1.8,0.7v-0.5h-0.2c0,0.3-0.3,0.5-0.8,0.5l0.3,0.8v0.3h-0.3l-0.5-0.5l0.3-0.3v-0.3h-0.3
		l-0.3,0.3h-0.3l-0.3-0.3v-0.5l1,0.3h0.3v-0.3l-1.3-0.2v-0.3L141.4,28.8z M139.3,38.5c0.5,0.5,0.8,1,0.8,1.6h0.5
		c0-0.9-0.3-1.3-0.8-1.3v-0.3h0.8v-0.2h-0.5L139.3,38.5z M139.3,40.1l0.3,0.8l0.3-0.3h0.3v0.5h0.5v-0.8L139.3,40.1z M139.3,96v0.3
		h0.8l0.3-0.3h0.3l0.3,0.3h0.5V96l-1.3-0.3L139.3,96z M139.6,41.2v0.5l0.5,0.5h-0.5v0.3h0.8v0.3c-0.5,0-0.8,0.2-0.8,0.5v0.3h0.8v0.3
		h-0.8v0.5l0.3-0.3h0.5v0.3l-0.5,0.5l-0.3-0.3V45h1v-1.8l-0.8-2H139.6z M139.6,57.4V59h0.3c0-0.7,0.3-1,1-1v-0.3L139.6,57.4z
		 M140.1,59v0.3h0.5v0.3h-0.8l-0.3-0.3v1l0.3,0.3l-0.3,0.3v1.3h0.5l-0.3-0.3v-0.3l0.8-0.3V61h-0.5v-0.2h0.8v-0.3c-0.7,0-1-0.2-1-0.5
		v-0.3h1V59H140.1z M139.6,62.4v0.8h0.5v-0.8H139.6z M141.4,30.8l0.7,0.3l-0.5,1l0.3,0.3h-0.3l-1-0.5l-0.3,0.3l-0.3-0.3v-0.3
		C141,31.6,141.4,31.3,141.4,30.8z M140.4,48.4l-0.3,1h0.3l0.3-0.3v-0.8H140.4z M140.4,45.3v1h0.3v-1H140.4z M140.6,62.9v0.8
		l0.3,0.3h0.3v-0.3l-0.3-0.8H140.6z M140.9,66.2v0.5l-0.3,0.3l0.3,0.3h0.3l-0.3,0.3v0.3h0.7l-0.2,0.3v0.3h0.2l0.3-0.3v-0.3
		c-0.5,0-0.7-0.5-0.7-1.6H140.9z M140.9,100.2v0.5h0.7v-0.3L140.9,100.2z M141.2,84.1l0.5,0.5v0.5l-0.5-0.5V84.1z M141.2,96.5v0.2
		l0.5,0.5h0.3v-0.5l-0.3-0.2H141.2z M141.9,33.1v0.3l-0.5,0.5v-0.3L141.9,33.1z M141.6,97.5l-0.2,0.3v0.3l1-0.3v-0.3H141.6z
		 M141.6,25.1h0.8v0.2l-0.8,0.3V25.1z M141.9,96v0.5h0.3l0.5-0.5H141.9z M142.1,30.3h0.5l0.5,0.5v0.3h-0.5l0.3,0.3v0.3h-0.5
		L142.1,30.3z M142.1,98.6v0.3l0.8,0.3v-0.3l-0.3-0.3H142.1z M142.9,24.6h0.3v0.5h-0.8L142.9,24.6z M142.4,89h1v0.5h-0.3l-0.8-0.3
		V89z M142.7,82.3l0.8,0.8l-0.3,0.2h-0.3l-0.3-0.2V82.3z M143.2,33.1h0.5l-0.3,0.8h-0.3V33.1z"/>
	<path fill="#FFFFFF" d="M142.6,124.1l-4.3-0.8l-1.2-0.8l0.3-1.1l1.3-0.3l0.2,0.1l-0.1,0.5l-0.5-0.1l-0.1,0.6l0.5,0.1l0.1-0.5
		l0.1,0.6l1,0.2l0.3-0.5l0.2,0.1l-0.2,1.1h0.2l0.3-1.6l0.7,0.2l-0.1,0.5l-0.5-0.1l-0.1,0.6l0.5,0.1l0.3-0.5l0.2,1.2l0.1-0.5
		l-0.1-0.6l0.3-0.5l-0.5-0.1l0.1-0.6l0.7,0.2l0.1,0.6l-0.1,0.5l-0.3,0.5l0.5,0.1l-0.1-0.6l0.1-0.5l0.3,0.1l-0.2,1.1l0.3-0.5l0.2,0.1
		l0.4,0.6l0.1-0.5l0.3,1.2c0.3,0.1,0.6-0.6,0.9-2h0.2l-0.3,1.7l0.3-0.5l0.1,0.6l1,0.2l0.3-0.5l0.1,0.6l0.4,0.1l0.9-0.4l0.1-0.5
		l-0.3-0.1l1-1.5l0.1,0.6l-0.1,0.6l-0.3-0.1l0.1,1.2l0.2,0.1c0.3-1.5,0.7-2.1,1.2-2c-0.1,0.7,0,1.1,0.3,1.2l-0.1,0.5l-0.5-0.1
		l-0.1-0.6l-0.3,0.5l-0.1-0.6l-0.1,0.5l0.4,0.7l1.6-0.8l0.2,1.2l0.3-0.5l0.1-0.5l0.1,0.6l0.3,0.1c0.4,0.1,0.9-0.4,1.6-1.4h0.2
		l0.4,2.4l-0.5-0.1L142.6,124.1z M138.4,118.7l-0.4-0.1l0.3-1.6l0.2,0.1L138.4,118.7z M139.4,120.6L139,120l0.1-0.6l0.4,0.1l0.1-0.6
		l-0.5-0.1l0.3-1.6l0.2,0.1c-0.2,1.1-0.1,1.7,0.5,1.8L139.4,120.6z M139.1,117.2l0.5-1.6l0.6,0.7l-0.1,0.6L139.1,117.2z
		 M140.5,119.2l-0.2-0.1c0.2-1.1,0.2-1.7,0-1.7l-0.1,0.6l0.1,0.6l-0.4-0.1l0.4-1.7l0.3,0.1c0.2,0,0.3,0.6,0.1,1.7L140.5,119.2z
		 M140,121.3l0.3-0.5l0.1-0.5l-0.1-0.6l0.3,0.1l0.1,0.6l0.2,0.1l-0.1-0.6l0.2-1.1l0.1,1.2l-0.2,1.1L140,121.3z M141.8,119.4
		c0.2-1.1,0.2-1.7,0-1.7l-0.4-0.1c-0.2,0-0.5,0.5-0.7,1.6l-0.2-0.1l0.3-1.6l0.3-0.5l-0.3-0.1l0.1-0.5h0.2l0.6,0.7l0.8-0.4l-0.3,0.5
		l-0.1,0.6h0.2l0.3-0.5l-0.2,1.1L141.8,119.4z M146.1,64.8c0.2,0.9,1.2,1.7,2.8,2.3l-0.5,6l-0.3,0.9v1.4H148l-0.2-1l0.2-1l-0.3-0.7
		l-0.1,0.3l-0.2,3l0.2-0.3h0.1l0.3,0.7l-0.2,3l-0.3,1l0.1,0.3h0.1l-0.2,0.4l-0.3,3.3l-0.1,0.4l0.1,0.3c-0.2,1.3-0.3,2-0.4,2l0.1,0.4
		l-0.2,2c-0.2,0-0.4,0.6-0.5,2c0.2,0,0.3,0.2,0.3,0.7h-0.4l-0.3-0.7l-0.2,0.4l-0.1-0.1l-0.1-0.3l0.1-0.4l-0.2,0.4h-0.1l-1.5-1.5
		l-0.1-0.3l-0.3,0.3c0-0.5-0.5-1.1-1.7-1.8c0.4-3.1,0.7-4.7,0.9-4.7l0.1,0.1V83h-0.2v-0.3l3-18L146.1,64.8z M142.2,121.2l-0.1-1.2
		l0.1-0.6l0.1,1.2L142.2,121.2z M143,121.9h-0.2c-0.2-0.1-0.3-0.6-0.1-1.7l0.1-0.5h0.2l0.1,1.2L143,121.9z M143.1,118.5L143,118
		l-0.2-1.2l-0.2-0.1l0.1-0.5l0.5,0.1L143.1,118.5z M143.1,87.4l-0.1,1.4h0.3l0.1-1.3L143.1,87.4z M143.6,88.1l-0.1,1h0.1l0.3-0.6
		v-0.4H143.6z M143.9,118.1l-0.2-0.1l0.1-0.5l0.8-0.4l0.2,0.1l-0.1,0.5L143.9,118.1z M144.3,77.1L144.3,77.1l0.3-0.7h-0.1
		L144.3,77.1z M144.8,25.6h0.4l-0.2,0.3v0.3h3.1l0.2,0.3h0.2l0.2-0.8h0.4v0.3l-0.2,0.3v0.3h1.2l-0.2,7.4v0.5L145,34h-0.4v-3l0.2-0.3
		v-0.2h-0.2l0.2-0.3V25.6z M144.7,84.5l-0.1,0.3l1.5,1.8l0.2-0.4V86l-1.5-1.5H144.7z M144.8,72l0.3,0.7v-0.3v-1L144.8,72z M145,76.8
		v0.4h0.2l0.1-1L145,76.8z M151,26.8h1.5l0.3,0.3l0.9-0.3h3.2v0.3h-3.2v0.4h4.7l0.9,0.3l0.3-0.3v1.3h0.3v-0.6H170l5,0.3l0.3,1.7v3.4
		l0.6,3.4H175v1h0.6v-0.6l1.2,1.3l-0.6,0.7l0.3,1h-0.3l-0.6,0.7v0.4h0.9v1.3l-0.3,0.4l0.6,2l-0.3,1.4l0.3,0.3c-0.4,0-0.6,0.3-0.6,1
		v0.7h0.3v-1h0.3v1.4l-5.7,56.6c-1.4,8.7-2.2,13.1-2.6,13.1c-2.3-0.5-3.7-0.9-4.2-1.4l-0.3,0.4l-5.9-1.4v-0.3h0.9v-0.4h-0.9L157,116
		l-0.6-1l-0.3,0.3h-0.3l-2.9-0.7v0.4l-3.9-1c-0.4,0-0.6,0.6-0.6,1.7l-0.3,0.3h-0.3l-0.3-1.4h-0.3v1.4l-0.9-0.7l0.9-8.7v-1.4h-0.3
		l-0.9,10.1l-0.9-0.3l2.9-29.5v-0.6l0.9-1l-0.3-1.3c0-3,0.5-8,1.5-15.1h0.3v1l0.6-0.7v-0.7l-0.3-1l0.3-1.7v-2L150.7,52v-1.4h0.3v4
		h0.3V30.8L151,26.8z M145.3,82.2l-0.1,0.7h0.3l0.1-0.7H145.3z M145.5,73.8l0.2,0.7h0.1l0.1-1L145.5,73.8z M145.6,25.6h2.7v0.3h-2.7
		V25.6z M145.6,76.1l0.1,0.4h0.1l0.1-1L145.6,76.1z M145.8,79.5l0.1,0.4h0.1l0.1-1L145.8,79.5z M146.3,75.2l-0.1,1l0.3-0.7v-0.3
		L146.3,75.2z M146.6,78.6l-0.1,0.7h0.3l0.1-0.3L146.6,78.6z M146.8,66.5l-0.1,1h0.2v-1H146.8z M147,118.2c0.1-0.7,0.4-1.1,0.7-1
		l0.3,0.1l-0.1,0.6L147,118.2z M147.1,72.6v0.4v1h0.2v-0.3L147.1,72.6z M160.5,39.2l-0.6,0.7l-0.8-0.3c-4.2,0-6.2,2.9-6.2,8.7
		l-0.9,16.8h-0.3v-0.7h-0.3v3.7l0.3-0.3h0.3v1.3l-0.3-0.3H151l-0.9,5.4v1.3l-3,28.8v0.7h0.3l0.3-1l-0.3-0.4v-0.3
		c1-6.3,2-15.1,2.9-26.5h0.6l-0.3,6.7v2.4l0.3,0.3v0.4l-0.6,0.6c0.6,0,1.2,0.5,1.8,1.4c0,0.9,3,2.1,8.9,3.7l5.9,0.6
		c3.1,0,5-5,5.7-15.1l0.3-2.7h-0.3l-5.9-1l-0.3,0.3h-0.3l-1.2-0.3h-0.6c-0.8,6-1.4,9.1-2,9.1h-0.6c-0.6-0.2-0.9-0.9-0.9-2l1.2-9.1
		l-0.3-0.3l0.3-1l0.6-20.4c0.4-1,0.8-1.6,1.2-1.7c0.8,0,1.3,0.7,1.5,2l-0.3,4.7v1.3h3.8c1.4,0.1,2.1,0.3,2.1,0.7
		c2-0.2,2.9-0.5,2.9-1v-4l0.3-2l-0.3-1l0.3-0.3c0-5.6-1.5-8.4-4.4-8.4l-0.9-0.7v0.3l-0.3-0.3h-2.4l-1.2-0.3l-0.9,0.3l-0.9-0.7
		l-0.9,0.7L160.5,39.2z M148,121.2l-0.5-0.1l0.2-1.1l0.4,0.6L148,121.2z M147.6,67.6l-0.1,0.3l0.2,0.7v-0.3L147.6,67.6z M149,121.4
		l-0.2-0.1l0.2-1.1l-0.3,0.5c-0.6-0.6-0.9-1.2-0.7-1.8l0.4,0.1l0.2-1.1l-0.4-0.1l0.1-0.5l0.9,0.2c0.2,0,0.2,0.8-0.1,2.3h0.2
		c0.2-1.1,0.6-1.6,1-1.5h0.2l-0.1,0.6C149.9,118.7,149.4,119.6,149,121.4z M149,98v1.3l0.3,0.4v0.3l-0.3,0.3h0.3l0.3-0.3l0.3,0.3
		v-0.6l-0.3-1.7H149z M149.4,25.8h0.8v0.3h-0.8V25.8z M149.8,90.9v1.4h0.3v-1.4H149.8z M150.2,89.2v1.4h0.3v-1.4H150.2z M150.2,98.3
		v0.3l0.6,0.7V99L150.2,98.3z M150.7,48.6h0.3V50h-0.3V48.6z M151.3,69.4h0.6v2l-0.6,4.4H151v-0.7h-0.3L151.3,69.4z M151,122.4
		l0.5-1.6l0.1,0.6l0.2,0.1l0.1-0.5l-0.1-0.6l0.4,0.1l-0.4,1.6L151,122.4z M151,113v0.4l0.6,0.7l0.6-0.7l-0.3-0.4v-0.3L151,113z
		 M151.3,27.8v0.4h0.6l0.9-0.4v-0.3h-0.6L151.3,27.8z M151.6,61.4l-0.3,1.4h0.6v-1.4H151.6z M151.3,92.6v0.7l0.3-0.4h0.3l0.3,0.4
		l0.3-0.4v-0.6h-0.3L151.3,92.6z M152.9,119.3l-0.4-0.1l-0.4-0.7l0.1-0.5l0.5,0.1L152.9,119.3z M152.5,68.1l0.6,0.7v0.3l-0.6-0.6
		V68.1z M153.2,121.1L153,121l-0.1-1.2l0.1-0.5l0.4,0.1L153.2,121.1z M153.7,68.4l0.9,1h-0.9V68.4z M154.1,122.4l-0.4-0.1l0.5-1.6
		h0.2L154.1,122.4z M155.2,124.9l-0.1-0.6l-0.4-0.1l-0.9,0.4c0.1-0.6,0.4-1.1,1-1.5l0.1,0.6l0.1-0.5l0.4,0.6L155.2,124.9z
		 M153.9,123.5l0.2-1l0.5,0.1l0.2-1.1l-0.3,0.5h-0.2l0.1-0.6l0.5-1.6h0.2c-0.3,1.5-0.2,2.2,0.1,2.3l-0.1,0.5L153.9,123.5z
		 M154.9,68.7l0.9,0.3v0.7h-0.3l-0.6-0.7V68.7z M155.5,122.1c-0.3-0.4-0.4-1.2-0.3-2.3l0.6-1h0.2L155.5,122.1z M157.1,124.7
		l-1.6-0.3l0.3-1.6l0.3,1.2l0.1-0.6l0.9,0.8L157.1,124.7z M156.3,121.1L156,121l0.6-2.1l0.7,0.2l-0.2,0.5
		C156.8,119.5,156.5,120,156.3,121.1z M156.1,69.4h1.2l-0.6,0.7L156.1,69.4z M157.7,123.1l-0.5-0.1l0.5-1.6l0.2,1.2L157.7,123.1z
		 M157.7,124.8l-0.6-0.7l0.1-0.6l1.3-0.3l0.1,0.6l0.3-0.5l0.1,0.6l-0.1,0.5L157.7,124.8z M158.3,120.9l-0.7-0.1l-0.2-1.2l0.4,0.1
		l0.1,0.6l0.2,0.1l0.1-0.6l-0.1-0.6l0.7,0.2l-0.1,0.5l-0.3-0.1l0.1,0.6L158.3,120.9z M158.9,121.6l-0.7-0.1l0.1-0.6l0.8-0.4
		L158.9,121.6z M158.7,123.3l-0.1-1.2l0.3-0.5l0.2,0.1L158.7,123.3z M159.3,37.9v0.4l0.6,0.7v-1H159.3z M159.7,122.4l-0.2-0.1
		l0.4-2.7l0.5,1.2l-0.3,1.1l-0.1-0.6l-0.2-0.1L159.7,122.4z M159.6,30.5v1.7h0.3v-0.7h0.3l-0.3-1H159.6z M159.6,32.5v1.4h0.3
		l0.3-1.4H159.6z M159.6,114.7v0.7l0.9,0.4v-0.4l-0.6-0.7H159.6z M160.6,124.2l-0.9-0.2l0.1-0.6l1.7-0.2h0.2l-0.1,0.6L160.6,124.2z
		 M160.3,123l0.7-1.6l0.4,0.6l-0.1,0.6L160.3,123z M160.5,28.5v0.3c0.4,0,0.6,0.3,0.6,1l0.3,0.3h0.3c0-0.5,0.4-0.7,1.2-0.7v-0.7
		h-1.8l-0.3-0.3H160.5z M160.5,33.9v0.3l0.3,1.7l-0.3,0.3h0.9l0.6-0.6v-0.7c-0.6,0-0.9-0.3-0.9-1H160.5z M160.5,36.9v1h0.3l0.3-1
		H160.5z M161.4,36.5v1l1.2,0.3l0.3-0.3v-1h-0.3l-0.3,0.3l-0.3-0.3H161.4z M161.4,38.5v0.4l0.6-0.7v-0.4L161.4,38.5z M162.4,121.2
		l-0.5-0.1l0.3-1.1l0.4,0.6L162.4,121.2z M164.5,124.4l-2.4-0.5l0.3-0.5l0.1-0.6l0.1,0.6l0.2,0.1l0.3-0.5l0.1,0.6l1-0.4l0.6,0.7
		L164.5,124.4z M162.9,116.3v0.4h1.2v-0.4H162.9z M163.5,28.8v0.4h1.8v-0.4H163.5z M163.5,34.5v2h0.6v-0.4l-0.3-0.3v-0.3l0.3-1
		H163.5z M163.8,122.6l-0.2-0.1l0.3-1.6l0.7,0.1l-0.1,0.6C164.2,121.5,163.9,121.9,163.8,122.6z M164.7,37.5l-0.3,0.3v0.7h0.6
		l-0.3-0.3v-0.4l0.3-0.3H164.7z M165.5,124.1l-0.9-0.2l0.1-0.5l0.9,0.2L165.5,124.1z M166.9,124.3l-0.1-0.6l-0.1,0.5l-0.9-0.7l0.6-1
		l0.1,0.6l0.2,0.1l0.3-1.1l0.2,0.1l-0.2,1.1l1.6,0.3l-0.1,0.5L166.9,124.3z M166,122.5l-0.2-0.1l0.6-1h0.2L166,122.5z M165.9,28.8
		v0.4h2.7v-0.4H165.9z M169,123.6l-0.7-0.1l0.1-0.6l0.7,0.2L169,123.6z M168.5,34.5c0.4,0.5,0.6,1.3,0.6,2.4h0.6l-0.6-2.4H168.5z
		 M171.5,69.4v1h0.3l0.3-1H171.5z M171.8,31.8l0.3,0.4h0.3v-1L171.8,31.8z M173.2,34.2v0.7l1.2,0.3v-0.3l-0.6-0.7H173.2z M175,38.9
		l0.6,0.7h0.3v-0.7H175z"/>
	<path fill="#FFFFFF" d="M170.5,91.5h0.6l0.3,1.2h-0.9V91.5z M172.9,101.7v0.8h0.6l0.3-1.6h-0.3L172.9,101.7z M178.2,27.2h1.7v2.1
		c0,2.2,0.9,3.3,2.8,3.3c1.5-1.4,2.3-2.9,2.3-4.6v-0.5l-0.3-0.4h1.7c0,2,0.3,2.9,0.9,2.9v0.4c-0.6,0-0.9,0.3-0.9,0.8v0.4l0.3,0.5
		v0.4l0.3-0.4h1.1l1.2,0.4l0.8-0.4l0.8,0.4v-2.1h-1.9l-1.4-0.4l0.3-2.5h0.8l2.3-0.4l7.6,0.9l0.9-0.5l3.7,0.5v77.3l-3.7,0.4l-0.9-0.4
		v0.4l-0.2-0.4h-2.6l-0.3,0.4l-0.3-0.4h-0.3l-0.3,0.4l-0.3-0.4h-3.7l-0.3,0.4H190v-0.4l-0.3,0.4h-0.3l-0.3-0.4h-0.3v0.4l-0.3-0.4
		h-9.3l-0.3-0.4h-0.3l-0.3,0.4V105l-0.3,0.4h-0.6l-0.2-0.4h-0.3l-0.3,0.4l-0.3-0.4v0.4c-0.9,0-1.4-0.7-1.4-2.1l-0.3-0.4v-0.4l1-2.6
		l-0.8-1.3l0.5-0.8v-0.8l-0.3,0.4h-0.5c0.2-1.7,0.6-2.5,1.4-2.5v-0.8l-0.3,0.4h-0.3c0-0.6-0.4-0.8-1.1-0.8v-0.4
		c0.6,0,0.8-0.3,0.8-0.8c-0.3-0.7-0.5-1.6-0.5-2.9h-1.2c0,0.5,0.3,0.8,0.8,0.8v1.3H174l-0.8-2.1v-0.8h0.6l0.3,0.4h0.3
		c0-0.5,0.3-0.8,0.8-0.8v-0.8h-0.6l0.6-3.4l-0.6-0.8h0.3l-0.6-2.1l1.4-3.3l-0.3-0.4V77l0.5-1.6l-0.5-3.4l0.3-0.4v-0.4l-0.3-1.7V69
		c0.6,0,0.8-0.3,0.8-0.8l-0.3-0.5h-0.3c0,0.8-0.2,1.3-0.5,1.3l-0.3-0.4l0.5-4.2h-0.5v1.3h-0.3v-2.1l0.3-1.2h-0.6v-0.8l0.3-0.4v-0.5
		h-0.3l-0.3,0.5v-1.3l0.3-1.5V58l-0.6-0.8l0.6-0.8v-0.4l-0.3,0.4h-0.3v-0.4l0.3-0.4V55l-0.5-2.9h0.3l0.8-0.4v-1.6H174v-0.5
		c0.4-3.5,1-5.2,1.9-5.2l-0.3-1.3l0.3-1.3l-0.8-1.3h-0.3l0.5-2c-0.7-0.6-1.1-1.3-1.1-2.1v-1.3h0.3v1.7h0.3c0.3,0,0.5-0.4,0.5-1.3
		h0.3c0,1.1,0.3,1.7,0.8,1.7l0.3-0.4v-0.4c-0.8,0-1.2-0.4-1.2-1.3c0.4-0.6,0.6-1.6,0.6-2.9c0.6,0,0.8-0.4,0.8-1.3l0.5-2.9h0.6
		l-0.3,2l0.6-0.8v-1.3l-0.3-0.5V27.2z M177.8,40.8l-0.3,0.5v9.3l0.6-0.9l1.5,0.5l0.3-0.5l0.3,0.5h3.7l0.3,2.4l-0.3,0.5l0.3,0.4v7.2
		l-0.3,0.5l0.3,0.5V72l-0.3,0.5l0.3,0.5v0.9l-0.3,2.4l0.3,2.9l-0.3,0.5l0.3,0.4v0.5l-0.3,0.5l0.3,0.5v0.9l-0.3,1.9l0.3,1.9l-0.3,2.3
		l0.6,1h-0.6l0.3,0.5v0.5l-0.3,0.5v0.5l0.3,2.4h-0.3l0.3,1.4l1.8-0.4l0.9,0.4v-0.9h0.6v0.9h1.8l0.3-0.4l0.9,0.4l0.3-0.4h0.3l0.9,0.4
		v-0.9l-0.3-0.5v-0.5h0.6l-0.3-0.4v-6.2l0.3-0.4l-0.3-0.5V70.1l0.3-1.9l-0.3-1.4h0.3l-0.3-0.5v-1.5l0.3-0.4l-0.3-0.5v-1.9l0.3-1.9
		l-0.3-2.9l0.3-1.5l-0.3-2.8v-0.5l0.3-0.5l-0.3-0.5v-1.4l0.6-0.9l0.9,0.9v-0.5l1.8-0.1l0.3,0.6h0.3l0.3-0.6h0.3l1.8,0.6l0.3-0.6v0.6
		h-0.3l0.1-4.7l-0.3-2.7l0.3,2.4l-0.3-0.5v-1.9l0.3-0.5v-0.5l-0.3-0.4h-1.6l-0.3,0.4l-0.3-0.4h-2.7l-1.2-0.5l-1.2,0.5h-1.2l-1.3-0.5
		l-1.2,0.5l-0.3-0.5l-0.3,0.5h-0.3l-0.9-0.5l-1.5,0.5h-5.4l-0.3-0.5H177.8z M179,28.5v0.4l-0.3,1.6l-0.6-0.8L179,28.5z M179,27.2
		h2.8v1.3c0,1.6-0.5,2.4-1.6,2.4C179.4,29.9,179,28.7,179,27.2z M183,101.2l0.5,0.6v0.3h-0.8v0.6l0.8,1.2v0.3H183l-0.5-1.2v-1.2
		L183,101.2z M182.8,55.4h0.5v1.1H183L182.8,55.4z M182.8,106.9h0.5l0.3,1.2h-0.8V106.9z M185.1,56.9v1.3l-0.6-0.8l0.3-0.5H185.1z
		 M185.1,84.5l0.6,1.7l-0.9,0.8l-0.3-0.4v-0.4l0.3-0.4v-0.4l-0.3-0.5l0.3-0.4H185.1z M185.4,82.9h0.6v0.4l-0.3,1.2h-0.3V82.9z
		 M185.7,55.2h0.3l0.3,2.1l-0.3,0.4h-0.3V55.2z M186,54h0.6v0.5l-0.6,0.8V54z M186.6,87.7v0.5L186,89v-0.4L186.6,87.7z M187.2,92.3
		v0.4l-0.6,0.8H186C186,93.1,186.4,92.7,187.2,92.3z M186.3,82.9h0.6l0.3,0.4h0.3l0.3-0.4v0.4l-0.6,0.8l-0.9-0.4V82.9z M186.3,91
		l0.3,0.4h0.3l0.9-0.4l-0.6,0.8h-0.9V91z M187.2,81.2l0.3,0.4v0.9h-0.3l-0.6-0.9l0.3-0.4H187.2z M188,105.2v0.9l-0.5-0.6l0.3-0.3
		H188z M187.7,113.2h0.5l0.5,0.6v0.3C188.1,113.8,187.7,113.6,187.7,113.2z M188,102.7c0.4,0,0.6,0.5,0.8,1.4h-0.5L188,102.7z
		 M188.4,88.2h1.5v0.4h-0.6V89l-0.9-0.4V88.2z M189.1,86.2h0.9l-0.6,0.8h-0.3V86.2z M189.7,83.3l0.3,0.4h0.3l0.9-0.4
		c0,0.4-0.4,0.8-1.3,1.2l-0.3-0.4V83.3z M190.3,84.9h0.3l-0.6,0.9h-0.3L190.3,84.9z M190.9,106.9h0.5l0.3,0.9h-0.3l-0.5-0.6V106.9z
		 M191.1,109.2h0.5v0.9h-0.5V109.2z M192.7,105.5h0.5v1.1h-0.5V105.5z M193.5,107.2h0.5v0.8h-0.5V107.2z M194.3,91.8l0.5,0.6
		l-0.3,0.3h-0.3V91.8z M194.8,49.1l0.3,0.3h0.3v-0.8L194.8,49.1z M197,47.1v0.4l-0.6,0.9h-0.6C195.8,47.9,196.2,47.5,197,47.1z
		 M195.8,53.4h1.2v1.2h-0.6l-0.6-0.8V53.4z M196.6,50.9l0.3,0.4l0.3-0.4h0.3l0.1,0.8l0.2,0.4h-0.3l-0.9-0.4l-0.3,0.4l-0.3-0.4v-0.4
		l0.3-0.4H196.6z M198.1,101.9v0.5l-0.5,1.2h-0.8V103c0.3,0,0.5-0.3,0.5-0.8l0.3-0.3H198.1z M198.8,90.1c0,0.8,0.2,1.2,0.5,1.2
		c0.9,0,1.3,0.7,1.3,2h-0.8v0.6l1,2v0.3l-0.5,0.6h-0.5v-0.3l0.3-0.3v-0.3c-0.6,0-1.3-0.7-2.4-2l-0.8,0.3v-0.3c0-1.7,0.4-2.8,1.3-3.1
		L198.8,90.1z M197,98.4h0.5v0.8H197V98.4z M197.3,48.7h0.6v0.4l-0.6,0.8V48.7z M197.8,49.9v0.3h-0.6v-0.5L197.8,49.9z M198.5,28.1
		v4.5h0.3l0.3-0.4h0.3l0.3,0.4l0.3-0.4l-0.3-0.4v-0.4l0.3-0.5v-0.4h-0.3l0.3-0.4v-0.4l-0.3-0.4v-0.4l0.3-0.4l-0.3-0.4H198.5z
		 M198.8,79.4v0.9h0.5v-0.9H198.8z M198.8,92.9l0.5,0.6h0.3v-0.6H198.8z M199.1,93.8l-0.3,0.3v0.3h0.8L199.1,93.8z M199.2,65.3h0.5
		v0.9l-0.8,0.8v-0.3L199.2,65.3z M199.4,57.7l1.6,2.8l1.4,0.3l0.3-0.3l0.3,0.3V61l-2.4,2.6l-0.8-0.8l-0.3,0.3l-0.3-0.3v-0.8h0.8V61
		h-0.5v-0.3l0.3-1.2L199.4,57.7z M199.7,63v0.6l-0.3,0.9h-0.3v-0.9L199.7,63z M199.6,87.5v0.6l0.3-0.3h0.3l1,0.9
		c0.7-0.3,1.1-0.6,1.1-0.9l-1.1-0.3l-0.3,0.3h-0.3L199.6,87.5z M200.7,102.1l1.3,0.3h1.8v0.3l-0.3,0.3v0.3l0.3,0.3l1-0.3l1.3,0.3
		l0.3-0.3h0.3l0.3,0.3h0.3l0.8-0.3v0.6h-1l-1.8,0.3l-2.3-0.3h-1.9l-0.8,0.6l-0.5-0.6c0.5,0,0.8-0.3,0.8-0.9L200.7,102.1z
		 M199.9,75.7l0.5,0.6h0.3v-0.6H199.9z M200.2,82.3v1.2h0.3v-1.2H200.2z M202.3,95.2h0.3l-0.8,0.8h-0.3L202.3,95.2z M202.3,93.8
		l0.7,0.3v0.6h-0.2l-0.5-0.6V93.8z M203,46.8l0.3,0.3v0.3l-0.5,0.6l-0.3-0.3v-0.4L203,46.8z M202.8,60.5h0.7L203,61l-0.2-0.3V60.5z
		 M202.8,87.5v1.2h1v-0.3l-0.8-0.8H202.8z M202.9,27.2h0.2l0.8,0.3v0.3h-0.8l-0.2-0.3V27.2z M203.1,28.6h1.1v0.3l-0.8,0.3l-0.3-0.3
		V28.6z M203.4,23.4h0.3v1.2h-0.3V23.4z M203.4,25.8h0.3l0.5,0.6l-0.3,0.8h-0.3l-0.3-1.2V25.8z M203.8,94.7l0.8,0.3l-0.5,0.6h-0.5
		v-0.3l0.3-0.3V94.7z M203.7,35.5h1v0.8l-1-0.6V35.5z M204.5,25.5h0.3l0.5,0.6v0.3h-1V26h0.5l-0.3-0.3V25.5z M204.2,26.6h0.5
		l-0.3,0.9h-0.3V26.6z M204.8,32.4h0.5l0.8,0.3v0.6h-1.3v0.3l0.5,0.6h0.3v-0.6h0.3v0.8c-0.5,0-0.8,0.2-0.8,0.6h-0.8v-0.3h0.5v-0.3
		h-0.5v-0.3h0.8v-0.3c-0.5,0-0.8-0.4-0.8-1.2l0.8,0.3h0.3v-0.3h-0.5V32.4z M204.5,37.8h0.3v0.8h-0.5L204.5,37.8z M204.2,39h0.5
		l0.8,0.3l-0.3,0.3v0.3h0.5v0.3h-0.5l-0.8-0.3l0.3-0.3v-0.3h-0.5V39z M204.8,30.1c0.3,0,0.5,0.4,0.5,1.2h0.5V32h-0.3
		c-0.3,0-0.5-0.4-0.5-1.2h-0.5L204.8,30.1z M204.6,58h0.5v2.2h-0.5V58z M204.9,101.3h0.8l0.3,1.1h-0.3l-0.8-0.8V101.3z M205.8,34.4
		l0.3,0.3h0.3l0.3-0.3v0.8l-1.3,0.3v0.3h0.5v0.3l-0.5,0.6H205v-1.2l0.8-0.9V34.4z M205.4,79.2V82l-0.3,0.3v0.3l0.3,0.3h0.8v-0.3
		l-0.5-0.6l0.3-0.3v-0.3l-0.3-0.9l0.5-1.2v-0.3h-0.3v0.6h-0.3v-0.6H205.4z M205.6,94.1h0.5l-0.5,0.6h-0.5L205.6,94.1z M205.8,24.6
		h0.3v0.8l-0.3,0.3h-0.5v-0.6L205.8,24.6z M205.3,26.9h0.3l0.5,0.6v0.3h-0.8V26.9z M206.3,36.1h0.5v0.3h-0.8l0.3,0.3v0.3h-0.3
		l-0.5-0.6L206.3,36.1z M205.6,56.9h0.8l-0.3,0.8h-0.5V56.9z M205.8,38.6l0.8,0.3v0.3h-0.8V38.6z M205.9,76v0.6l1,0.6v-0.6l-0.5-0.6
		H205.9z M206.1,32h0.5l0.3,1.2C206.6,33.2,206.3,32.8,206.1,32z M206.9,38.1v0.6h-0.8v-0.3L206.9,38.1z M206.7,71.4l-0.3,1.5
		l0.5,0.6v-0.3l-0.3-0.3h0.3l-0.3-0.3V72l0.3,0.3h0.3l-0.3-0.9H206.7z M206.6,40.4h1.3v0.3l-1.3,0.3V40.4z M207.4,33.5h0.5v0.8h-1
		l0.5-0.6l0.3,0.3v-0.3L207.4,33.5z M206.9,35.2h0.8l0.3,0.3h0.3l-0.5,1.4h0.3l0.3-0.3l0.5,0.6l-0.3,0.8h-0.3v-0.6l-0.8,0.3h-0.3
		v-0.3h0.5v-0.3h-0.8v-0.3h0.5L206.9,35.2z M207.2,32.4h0.5v0.6h0.3l-0.3,1.2h-0.5l-0.3-0.9L207.2,32.4z M207.5,47.4v0.9l-0.5-0.6
		l0.3-0.3H207.5z M207,49.4h0.8l-0.5,0.6l-0.3-0.3V49.4z M207.6,30.9h0.3V32h-0.8v-0.3C207.5,31.8,207.6,31.5,207.6,30.9z M208.7,32
		l0.5,0.6l-0.5,0.6l-0.3-0.8h-0.3v0.6l-0.3-0.3h-0.3c0,0.6-0.2,0.9-0.5,0.9v-0.3C207.3,32.4,207.8,32,208.7,32z M207.2,65.9l1.3,0.6
		v-0.6c0.4,0,0.6,0.5,0.8,1.5h-1l-1-1.2V65.9z M207.2,79.7l0.8,0.8h0.3v-0.8H207.2z M207.2,100.1h1l-0.5,0.6L207.2,100.1z
		 M207.5,27.8h1v1.2h-0.3l-0.8-0.8V27.8z M207.5,43.9h1v0.3l-0.5,0.6L207.5,43.9z M207.5,45.7h0.3v1.2h-0.3V45.7z M207.5,52h0.3
		l0.3,0.3l0.3-0.3h0.8v0.6l-0.5,0.6v-0.3l-0.3,0.3H208l-0.5-0.6V52z M209.1,61.9v0.5l-1.3-0.3l-0.3,0.3v0.3c0.3,0,0.7,0.6,1,1.7h0.3
		l0.8-2L209.1,61.9z M208,72.8h0.3v0.5h-0.8L208,72.8z M208,91.5h0.5v0.3l-0.3,0.8H208l-0.5-0.6L208,91.5z M207.5,91.8l1.3,0.3v0.6
		H208l-0.5-0.6V91.8z M208,92.9l0.5,0.6l-0.3,0.3v0.3c0.9,0.4,1.3,0.9,1.3,1.7l-0.5,1.2h1v1.2c-0.9,0-1.4-0.3-1.6-0.8l0.5-2
		l-0.3,0.3h-0.5l-0.8-2.3l0.3-0.3H208z M208.3,95.8l0.3,0.3v0.3l-1,0.3v-0.6L208.3,95.8z M208.4,40.6v0.6h-0.8v-0.3L208.4,40.6z
		 M207.7,89.8h0.8l0.5,0.5v0.3h-1L207.7,89.8z M208.9,34.1h0.8v0.3h-0.5v0.8h0.8v-0.3l-0.3-0.3v-0.3h1.6v0.3l-1,0.3l0.3,0.8h-0.3
		l-0.8-0.3v0.8h-0.3v-0.6h-0.3v0.3l0.3,1.4l0.8-0.3v-0.6l-0.3,0.3h-0.3v-0.3l0.3-0.9h0.3v0.6l0.3-0.3h0.3l0.3,0.8h-0.5v0.3l0.3,0.3
		v0.3H210v0.6l0.3-0.3h0.3l0.3,0.9h-0.5c-0.3,0-0.5-0.3-0.5-0.9l-0.3,0.3h-0.3l-0.3-0.3c0,0.4-0.3,0.6-0.8,0.6l0.3,0.3v0.3h-0.5
		v-0.8c0.7,0,1-0.3,1-0.9l-0.3-1.7v-0.6h-0.8v-0.3l0.5-0.6h0.3v0.6h0.3V34.1z M208.5,65.1l0.5,0.6h-1L208.5,65.1z M208.9,31.2
		l0.3,1.2l-1-0.6v-0.3L208.9,31.2z M208.5,65.1l-0.3,0.3v0.3l0.5,0.6h0.3l0.3-0.9L208.5,65.1z M208.5,44.4h0.5v0.3l-0.5,0.6V44.4z
		 M208.5,46.1h0.8v-0.7l-0.5,1.7h-0.3v-1.5l0.3-0.3L208.5,46.1z M208.5,47.7h0.5v1.4l-0.5-0.6V47.7z M208.8,54l0.3,0.3h0.3
		c-0.2,0.9-0.5,1.4-0.8,1.4v-0.3L208.8,54z M209.3,102.4h0.3l0.3,0.9l-1.3,0.3C208.8,102.8,209,102.4,209.3,102.4z M208.8,36.9
		l0.5,0.6v0.9l-0.5,0.6V36.9z M208.8,39.2h0.5v0.6l-0.5,0.6V39.2z M209.1,78.9l-0.3,0.8h0.8l-0.3-0.8H209.1z M209.3,92.9l0.3,0.3
		v0.6h-0.3l-0.5-0.6l0.3-0.3H209.3z M209.3,43.6h0.3l0.5,0.6V45l-0.8,0.8l-0.3-1.4L209.3,43.6z M209.3,76.9l-0.3,0.9
		c0.2,0.8,0.6,1.2,1.3,1.2l-0.5-1.7l0.3-0.3H209.3z M209.2,31.2h0.5c0,0.6,0.3,0.8,0.8,0.8h0.3v-0.3h-0.5v-0.3h0.5l0.8,0.3V32
		c-0.5,0-0.8,0.3-0.8,0.9C210.3,32.9,209.7,32.4,209.2,31.2z M209.5,32.4h0.3c0,0.4,0.3,0.6,0.8,0.6l0.3,0.3v0.3l-0.5,0.6l-1-0.3
		v-0.3h0.5v-0.3h-0.5L209.5,32.4z M209.5,38.6h0.3v0.6c0.5,0,0.8,0.2,0.8,0.6l-1,0.6l-0.3-0.3L209.5,38.6z M209.8,90.9h0.3v0.6
		l-0.5,0.6l-0.3-0.3v-0.3L209.8,90.9z M210.1,56.5l0.8,1l0.5,0.6c-0.5,1-1.1,1.5-1.8,1.5v-1.4L210.1,56.5z M209.6,80.3v0.3l1.8,1.2
		v-0.6l-0.8-1.2L209.6,80.3z M209.6,94.3h0.3c0.3,0,0.5,0.3,0.5,0.9v0.3h-0.3L209.6,94.3z M211.1,69.4h1l0.3,1.4h-0.3l-2.4-0.3
		L211.1,69.4z M210.4,46.8l0.5,1.6v0.9l-0.5-1.6V46.8z M210.6,65.9l-0.3,0.9h0.3l0.3-0.3v-0.6H210.6z M210.4,77.2l0.8,0.8v-0.6
		l-0.3-0.3l0.3-0.3v-0.6L210.4,77.2z M210.9,92.4v0.8h-0.5v-0.3L210.9,92.4z M210.5,37.2h0.8l0.3,0.3v0.6l-0.5,0.6h-0.3v-0.8
		l0.3-0.3h-0.5V37.2z M210.6,54.9l0.5,1l0.3,0.3h0.3l-0.3,0.8l-0.8-1.9V54.9z M211.4,97.8l0.3,1.4l-0.3,0.3h-0.8
		C210.8,98.4,211,97.8,211.4,97.8z M210.8,35.5h0.8v1.2h-0.8V35.5z M211.7,94.7v0.8l-0.5,0.6h-0.3v-0.6L211.7,94.7z M211.4,104.1
		l0.3,0.3l-0.3,0.8l-0.5-0.6L211.4,104.1z M211.6,32.4h0.3v0.8H211v-0.6l0.3,0.3h0.3V32.4z M211.7,44.7h0.3l0.5,0.6v0.6l-0.5,0.6
		c-0.3,0-0.5-0.3-0.5-0.8L211.7,44.7z M211.9,48.2h0.3l0.3,1.4l-0.3,0.3h-0.8v-1.2L211.9,48.2z M213,60.8h0.5c0,0.6-0.7,0.9-2.1,1.2
		v-0.6L213,60.8z M213.5,67.9c0,0.6-0.2,0.9-0.5,0.9l-0.8-0.6h-0.3l-0.5,0.6v0.3h0.5v-0.6h0.3l1,0.9c0-0.4,0.3-0.6,0.8-0.6v-0.9
		H213.5z M212.5,96.1v0.6l-0.5,0.6l-0.5-0.9l0.3-0.3H212.5z M211.9,96.9h0.3v0.6h-0.8L211.9,96.9z M211.7,102.7h0.5v0.8h-0.5V102.7z
		 M211.9,99.2h0.5v0.9h-0.5V99.2z M212.7,72.9l0.3,0.3v0.3l-0.3,0.3h-0.5v-0.3L212.7,72.9z M212.7,91.8V92l-0.5,0.6v-0.3L212.7,91.8
		z M212.3,34.6v0.6l0.8-0.3v-0.3H212.3z M212.7,55h0.5v1.2h-0.8L212.7,55z M212.5,98.1h0.3c1.2,0.4,1.8,0.8,1.8,1.2l-1.6,0.6
		L212.5,98.1z M212.7,41.8h0.3l0.3,1.2h-0.5V41.8z M213.8,65.7l0.3,0.3v0.3l-0.8,0.6l-0.3-0.3v-0.3L213.8,65.7z M213.1,23.7h0.3
		l0.5,0.6h-0.3L213.1,23.7z M213.7,30.6l-0.5,0.6v0.3h0.3l0.8-0.3v0.3l-0.3,0.9h0.8V32h-0.5l0.5-1.4H213.7z M213.1,32.9v0.3l0.3,0.3
		l-0.3,0.3h0.3l0.3-0.3v-0.3l-0.3-0.3H213.1z M215.9,52.7h0.3c0,1.9,0.4,2.9,1.3,2.9h0.3V57l-0.5,0.6l-0.3-1.1h-0.3
		c0,0.6-0.2,0.8-0.5,0.8l-0.5-0.6l-1.8,0.6l-0.5-0.8c0-0.6,0.4-0.9,1.3-0.9v-0.3l-0.3-1.5h0.3l-0.3-0.3V53h0.3l0.5,0.6l-0.3,1.2
		l0.3,0.3h0.3l0.3-0.3l-0.3-1.5L215.9,52.7z M213.2,57.3c0.6,0.2,0.9,0.6,1,1.2h-1V57.3z M213.4,34.1v0.3l0.8,0.3l1.3-0.3v-0.3
		l-1.3-0.3L213.4,34.1z M213.7,36.9h0.3c0,0.4,0.3,0.6,0.8,0.6v0.3h-1V36.9z M213.7,38.6h0.8v0.9L213.7,38.6z M213.7,39.8h1v0.3h-1
		V39.8z M214.3,45.3l0.3,0.3V47H214l-0.3-1.4l0.3-0.3H214.3z M214.3,70.5v0.3l-0.5,0.6v-0.3L214.3,70.5z M213.8,92h1l0.5,1.7
		l-0.5,0.6l0.5,0.6l-0.3,0.3h-0.5C214,95.2,213.8,94.2,213.8,92z M214,48.7h0.5v0.8H214V48.7z M214.5,82.9l0.3,0.3v0.3H214
		L214.5,82.9z M214,86.3h0.8v0.6h-0.3L214,86.3z M214.3,90.1h0.3l1,0.3v0.3l-0.5,0.6h-0.5L214.3,90.1z M215.1,65.7v0.8h-0.5v-0.3
		L215.1,65.7z M215.1,96.1l0.8,0.3v0.3l-0.5,1.2h-0.3l-0.5-0.6L215.1,96.1z M214.7,39.5h0.8v0.3l-0.3,0.8H215L214.7,39.5z
		 M215.5,30.6l0.3,0.3v0.3H215v0.3h0.8l0.3-0.3v-0.6H215.5z M215.6,46.7v1.2h-0.5v-0.6L215.6,46.7z M215.6,49.9h0.3V53l-0.5,0.6
		h-0.3L215.6,49.9z M215.1,66.2h0.8v0.3l-0.5,0.6l-0.3-0.3V66.2z M215.3,40.1h0.5l0.3,1.2l-0.8-0.3V40.1z M216.1,43.5l0.3,0.3v0.6
		l-1,1.7v-0.3C215.5,44.3,215.8,43.5,216.1,43.5z M215.3,94.1h1.3v0.6h-0.5v0.3l-0.8-0.3V94.1z M216.4,95.5c0.5,0,0.8,1,0.8,3.1V99
		h-0.3l-1.6-0.6v-0.3l0.3-0.3v-0.3l-0.3-0.3C216,97,216.4,96.4,216.4,95.5z M215.9,101.9v0.8h-0.5v-0.3L215.9,101.9z M216.3,36.1
		v0.3l0.3,0.3h-1v0.3h0.5l-0.3,0.3v0.3h0.5v-0.6h0.3v0.6h0.3l0.3-1.4l-0.3,0.3h-0.3L216.3,36.1z M215.8,37.8v0.8l0.8,0.3l0.5-0.6
		v-0.3L215.8,37.8z M215.9,91.5l1,0.9l-0.3-0.3v-0.6h0.8v0.3l-0.5,2.9h-0.5l0.3-1.5v-0.6l-0.3,0.3h-0.3L215.9,91.5z M216.6,99.2h0.3
		v0.3l-0.8,0.9l-0.3-0.3v-0.3L216.6,99.2z M216.1,92.9l1.8,0.6v0.3l-0.5,0.6h-0.5c0-0.6-0.3-0.8-0.8-0.8V92.9z M217.3,30.9v0.6h-0.3
		v-0.6h-0.8v0.3h0.5c0,0.6,0.2,0.8,0.5,0.8v-0.6h0.3V32h0.3c0-0.6,0.5-1,1.6-1.2v0.6h0.3l1.3-0.3v-0.3h-0.5v0.3l-1-0.6l-0.3,0.3
		H217.3z M216.6,40.4h0.5v0.3l-0.5,0.6V40.4z M216.6,91.8h0.8v0.6h-0.8V91.8z M217.4,96.6l0.5,0.6l-0.5,0.6h-0.5v-0.6L217.4,96.6z
		 M219.2,37.8h-0.5c-0.3,0-0.5-0.3-0.5-0.9h-0.5l0.3,0.3v0.3h-0.3l-0.3-0.3h-0.3v0.3l0.5,1.7h0.3v-1.2l-0.3-0.3h0.3l1.3,0.3
		c0-0.6,0.3-0.8,0.8-0.8l0.3-0.3v-0.3C219.5,36.7,219.2,37,219.2,37.8z M217.3,40.9l0.8,0.3l-0.8,0.9l-0.3-0.3v-0.3l0.3-0.3V40.9z
		 M217.7,101l0.3,0.3v0.3l-0.3,0.3h-0.3l-0.3-0.3v-0.3l0.3-0.3H217.7z M217.4,99.2h0.5v0.9h-0.5V99.2z M217.7,62.8l0.5,0.6l-0.3,0.3
		h-0.3V62.8z M217.7,66.5h0.3l0.5,0.6l-0.3,0.3h-0.5l0.3-0.3v-0.3L217.7,66.5z M218.5,64.8v0.3l-0.5,0.6v-0.3L218.5,64.8z
		 M218.5,65.9h0.3l-0.8,0.9v-0.3L218.5,65.9z M218,89.5h1.3v0.6h-0.8L218,89.5z M218.2,90.3c0.4,0,0.6,0.5,0.8,1.5h-0.5l-0.5-0.6
		L218.2,90.3z M218,95.2h1v0.5h-0.5L218,95.2z M218.1,33.8l0.3,0.8l1-0.3v-0.3L218.1,33.8z M218.4,40.4h1l0.3,1.2l-0.5,0.6l0.3,0.3
		v0.3h-0.3l-1-0.9h0.3l0.3,0.3h0.3v-0.3l-0.3-0.3h0.5v-0.3h-0.8v-0.3h0.8v-0.3h-0.8V40.4z M218.7,55l0.5,1.2l-0.3,0.3h-0.3l-0.5-0.6
		v-0.3L218.7,55z M218.2,61.6h0.5l-0.3,1.2h-0.3V61.6z M219,92v0.9h-0.3l-0.5-0.6l0.3-0.3H219z M218.6,36.1l-0.3,0.8l0.8-0.3v-0.6
		H218.6z M219,52.2h0.3l-0.5,0.6h-0.3L219,52.2z M219.3,66.5l0.3,0.3v0.3l-0.5,1.2h-0.5C218.6,67.1,218.9,66.5,219.3,66.5z
		 M219,76.5h0.5v0.3c0,0.4-0.3,0.6-0.8,0.6h-0.3v-0.3L219,76.5z M218.6,35.2l0.3,0.3v0.3c1.4-0.2,2.1-0.5,2.1-0.8l-0.3,0.3h-1
		l-0.3-0.3L218.6,35.2z M219.5,50.5v0.8H219v-0.3L219.5,50.5z M219,74.6h0.5v0.9H219V74.6z M219.5,93.2h0.3v0.3l-0.5,0.6H219v-0.3
		L219.5,93.2z M219.8,57l0.5,0.9l-0.3,0.3h-0.3l-0.5-0.6L219.8,57z M219.5,59.1l0.5,0.6v0.3h-0.5V59.1z M219.9,41.2h0.3
		c0,0.6,0.2,0.9,0.5,0.9l-0.5,0.6h-0.5L219.9,41.2z M219.8,54.5h2.9V55c-0.6,0-1.3,0.3-2.1,0.9C220.2,55.9,219.9,55.4,219.8,54.5z
		 M219.9,32.6v0.6h0.8l-0.5-0.6H219.9z M220,48.7h0.5v0.8l-0.5,0.6V48.7z M220.6,92.4c0,0.6,0.2,0.8,0.6,0.8l1.3-0.6v0.9l-0.8,0.3
		l-0.3-0.3h-0.3l-0.8,0.3l-0.3-0.3v-0.6L220.6,92.4z M220.7,38.4l0.5,1.2h-0.5l-0.3-0.3h-0.3v0.6c0,0.4,0.3,0.6,0.8,0.6l0.8-0.3
		l-0.3-0.3v-0.3l0.3-0.3c-0.3,0-0.5-0.3-0.5-0.8H220.7z M220.6,86.6h0.6l-0.3,0.9h-0.5L220.6,86.6z M220.3,100.1h0.8l-0.5,0.6h-0.3
		V100.1z M220.7,27.2v0.3l-0.3,1.4h0.8v-0.3h-0.5l0.3-0.3v-0.8L220.7,27.2z M220.5,29.2v0.6l0.3,0.3h0.8v-0.3
		c-0.5,0-0.8-0.2-0.8-0.6H220.5z M230.8,57.9l0.8,0.8l-1.6,1.2l-0.5-0.6c-1.4,0.4-2.1,0.9-2.1,1.5h-0.5v-0.6h-0.5
		c-1.2,0-1.8-0.2-1.8-0.6l-1.6,0.8h-0.3v-0.6c-0.5,0-0.8-0.2-0.8-0.6h-0.5c0,0.6-0.2,0.9-0.5,0.9l-0.3-0.3v-0.6l0.8-0.8h0.3l1,0.3
		l1-0.3l0.8,0.6h0.3l0.8-0.6h0.5c0.3,0,0.5,0.4,0.5,1.2h0.3c1-0.8,1.9-1.2,2.7-1.2v0.3L230.8,57.9z M221.1,72.5l0.3,0.3v0.3h-0.8
		L221.1,72.5z M220.7,23.4v0.3h0.3l-0.3,0.3v2.3l1.3,0.6h0.3v-0.3h-0.5l0.5-0.8l-0.5-0.9l0.3-0.3h-0.5v0.6L222,26l-0.3,0.3h-0.5
		l-0.3-1.5h0.3l-0.3-0.3v-0.3l0.3-0.3v-0.3l-0.3-0.3H220.7z M220.7,34.4v0.3l1,0.3h0.3v-0.3l-0.8-0.3H220.7z M220.7,36.7v0.3h0.5
		l0.3-0.3v-0.3L220.7,36.7z M220.7,37.2v0.3l0.8,0.3v-0.3l-0.3-0.3H220.7z M221.4,86.6h0.3l0.5,0.6h-0.8V86.6z M221.8,28.3v0.3
		l0.5,0.8h-0.5v0.3c0.5,0,0.8,0.4,0.8,1.2l-1,0.3v0.3l1.8,0.3V32h-0.5v0.3h0.3l1.3-0.3v-0.3h-1v-0.3h3.1v-0.3h-3.4l-0.8-1.7h0.5
		v-0.3c-0.3,0-0.5-0.3-0.5-0.8H221.8z M221.5,38.1c0.3,0.8,0.5,1.2,0.8,1.2h0.3C222.4,38.7,222.1,38.3,221.5,38.1z M221.8,35.8v0.3
		l0.3,0.3l-0.3,0.3h0.5v-0.3L221.8,35.8z M222.3,40.1l-0.5,0.9v0.3l1.3-0.3l0.5,0.6v-0.3l-0.8-0.6l-0.8,0.3c0-0.4,0.3-0.6,0.8-0.6
		v-0.3H222.3z M222.4,100.1h0.8v0.6h-0.3L222.4,100.1z M223,76.8l0.3,0.3v0.3l-0.3,0.3h-0.5v-0.3L223,76.8z M222.7,95.2l1,1.1v0.6
		h-0.3l-1-0.8L222.7,95.2z M222.6,34.4v0.3l1.6,0.3l0.3-0.3v-0.3l-0.3,0.3h-0.3l-1-0.3H222.6z M223.4,35.5v0.8h-0.3l-0.5-0.6
		l0.3-0.3H223.4z M223.4,40.4h0.3v0.3l-0.5,1.7l0.3,1.2h-0.5l-0.3-2v-0.3L223.4,40.4z M222.8,39v0.6h0.8l-0.5-0.6H222.8z
		 M223.7,31.8l-0.5,1.4h-0.3V32l0.3-0.3H223.7z M223.7,48.2l0.3,0.3v0.3l-0.3,0.3v0.3l0.5,0.6l-1,0.3l-0.3-0.3V49L223.7,48.2z
		 M223.4,82.6h0.5v0.6h-1L223.4,82.6z M223,92.4h0.5v0.8h-0.3L223,92.4z M223.1,33.5v0.6l1-0.3v-0.3H223.1z M223.2,45.3l0.5,0.6
		l-0.3,0.3h-0.3V45.3z M223.4,51.6h0.5l0.3,1.2l-0.8,0.3V51.6z M224.4,40.4l0.3,0.3v0.3h-0.3l-0.3-0.3h-0.3v0.3l0.5,0.6
		c0.5-1.3,1.4-2,2.6-2V39h-0.3c-0.4,0.4-1,0.6-1.8,0.6C224.9,40.1,224.7,40.4,224.4,40.4z M224,49.9h0.5l0.3,0.3h0.3l-0.3,1.4h-0.3
		l-0.5-0.5V49.9z M224.3,71.1h0.3v1.2l-0.3-0.3H224L224.3,71.1z M224.7,42.1l1,0.6v0.3h-0.3l-1.3-0.3L224.7,42.1z M224.2,92.9h0.5
		v0.8h-0.5V92.9z M224.3,53.9h0.8v0.9h-0.3l-0.5-0.6V53.9z M225.1,59.1v0.8h-0.3l-0.5-0.6l0.3-0.3H225.1z M224.8,63l0.3,0.3v0.3
		l-0.5,0.6l-0.3-0.3v-0.3L224.8,63z M224.4,35.5h0.3l0.3-0.3l0.3,0.3v-0.6h-0.3L224.4,35.5z M224.7,38.4l-0.3,0.8h0.3l0.3-0.3v-0.6
		H224.7z M224.8,80.9h0.5v0.8l-0.5-0.6V80.9z M225.5,90.3h0.5v0.3c0,0.3-0.3,0.6-1,0.8v-0.6L225.5,90.3z M225.3,94.9l1,0.8l-0.3,0.3
		h-0.5l-0.5-0.6l0.3-0.3V94.9z M225.2,33.8l0.5,0.6h0.3l-0.5-0.6H225.2z M225.4,40.1v0.3h0.5v0.3h-0.8v0.6l1.8-0.6v-0.3l-1.3-0.3
		H225.4z M225.5,101.6h0.5v0.8h-0.5V101.6z M226.2,31.8V32l1.6,0.3h0.3V32l-1.6-0.3H226.2z M226.2,36.9v0.3h1l0.3-0.3v-0.3
		L226.2,36.9z M226.8,39.8h0.3l0.3,0.8c-0.2,1.2-0.5,1.7-0.8,1.7h-0.3v-2L226.8,39.8z M226.5,33.2c0.5,0,0.8,0.2,0.8,0.6h0.3v-0.8
		l-0.3-0.3H227L226.5,33.2z M226.6,68.8v0.3l0.8,0.3l-0.3-0.3v-0.3l0.3-0.3v-0.3h-0.3L226.6,68.8z M226.7,34.1v0.3l0.3,0.3h0.5v-0.3
		L226.7,34.1z M227.4,48.4l0.3,0.9c-0.2,0.8-0.5,1.2-0.8,1.2V49L227.4,48.4z M227,37.8v0.6l0.3,0.3h0.5v-0.3l-0.5-0.6H227z
		 M227.2,93.2h1v0.3l-1,0.3V93.2z M227.6,53.6h0.3c0.6,0.2,0.8,0.8,0.8,1.7h-0.5l-0.6-0.6V53.6z M227.6,98.6l0.6,0.6v0.3l-0.6,0.6
		V98.6z M227.9,26.9l0.6,0.6v0.6h-0.6V26.9z M229.5,45.9l0.3,0.3v1.7h-0.3l-0.8-0.6l-0.5,0.6l-0.3-0.3V47
		C228.3,46.3,228.8,45.9,229.5,45.9z M227.9,97.5h1.1v0.6l-0.5,0.6h-0.3L227.9,97.5z M229.5,92.4v1.4l-0.3,0.3v0.3l-0.8-0.3v-0.6
		h0.8v-0.6h-0.5v-0.3L229.5,92.4z M228.7,18v1.4h0.3V18H228.7z M229.5,70.5l0.3,0.3v0.3l-0.8,0.6h-0.3v-0.4L229.5,70.5z M228.7,76.6
		h0.3v1.2h-0.3V76.6z M228.7,96.3h0.8l-0.5,0.6l-0.3-0.3V96.3z M229.5,73.9l0.3,0.3v0.3l-0.3,0.3h-0.3l-0.3-0.3v-0.3l0.3-0.3H229.5z
		 M230,52.2h0.3l-0.3,2l0.3,0.3v0.3L230,55h-0.5v-2.3L230,52.2z M229.5,55.6h0.3l0.5,0.6v0.3l-0.5,0.5h-0.3l0.3-0.3v-0.6l-0.3-0.3
		V55.6z M230.6,56.8l0.3,0.3v0.3l-0.5,0.6h-0.8L230.6,56.8z M231.6,57.6h0.3v0.9l-0.8,2.9l-0.3,0.3l-0.3-0.3H230V63h-0.5v-0.3
		l0.3-0.3l-0.3-0.8l0.3-0.8h-0.3c0.1-0.6,0.5-0.9,1.3-1.2C231,58.3,231.3,57.6,231.6,57.6z M229.5,98.1h0.5V99h-0.5V98.1z
		 M229.8,47.8l0.5,0.6v0.4h-0.5V47.8z M229.8,49.9h0.5l0.5,1.2H230L229.8,49.9z M230.6,63c0,0.9,0.2,1.6,0.5,2v0.3h-0.8v-1.4
		l-0.3-0.3v-0.3l0.3-0.3H230.6z M230,70.5h0.3v1.2H230V70.5z M230,96.6h0.8l-0.5,0.6l-0.3-0.3V96.6z M230.8,81.2h0.3v1.2h-0.3
		l-0.5-0.6L230.8,81.2z M230.6,43.3h0.3l0.5,0.6l-0.5,0.6l-0.3-0.3V43.3z M230.8,47.5h0.5v1.2h-0.5V47.5z M231.4,66.5v0.9h-0.5v-0.3
		L231.4,66.5z M231.4,98.6l0.3,0.3v0.6h-0.3l-0.5-0.6l0.3-0.3H231.4z M231.1,56.2h0.8v0.6h-0.8V56.2z M231.1,92.9h0.8v0.3l-0.5,0.6
		h-0.3V92.9z M231.4,86.9h0.5l0.3,0.8h-0.3l-0.5-0.6V86.9z M232.1,48.4l0.3,0.4v0.6h-0.3l-0.5-0.6l0.3-0.4H232.1z M231.6,67.1h0.3
		l0.5,0.6h-0.8V67.1z M231.9,44.7h0.5v0.3l-0.5,0.6V44.7z M231.9,70.8h0.3l0.5,0.6h-0.8V70.8z M235.5,83.8v1.1H235l-0.3-0.3
		c-1,0.2-1.9,0.6-2.6,1.4h-0.3l0.5-0.6l-0.3-0.3V84h0.3l0.8,0.6C234.2,84.5,235,84.2,235.5,83.8z M232.9,59.3h0.3l0.5,0.6l-0.3,0.3
		h-0.8L232.9,59.3z M233.2,65.3l0.3,0.3h0.3l0.3-0.3v0.6l-0.5,0.6l-0.3-0.3V65.3z M233.2,94.1h0.8v0.6h-0.3L233.2,94.1z M233.2,96.9
		h0.5v0.9h-0.5V96.9z M234.2,50.2l0.3,0.3v0.3l-0.3,0.8l0.3,0.3l-0.3,0.3H234l-0.3-0.3h-0.3C233.7,50.7,233.9,50.2,234.2,50.2z
		 M233.7,99.8h0.8v0.6l-1,0.3L233.7,99.8z"/>
	<path fill="#FFFFFF" d="M203.6,25.2h0.2l0.3,2.6l0.5-0.6l0.2,0.3L205,27l-0.2-0.3v-0.6l0.5-0.3v0.3l-0.2,0.3v0.3h0.3l0.2-1.2h0.2
		V27l0.8-0.3h0.3l0.8,1.5v-0.6l0.1,0.3h0.2c0-0.6,0.3-0.8,0.9-0.8c0-0.6,0.1-0.9,0.3-0.9l0.4,0.9l1.1-0.6l0.1,0.3V27l0.2-0.3h0.5
		c0.2,0,0.3,0.4,0.3,1.2c0.3,0,0.7-0.3,1-0.8l0.2,0.3l0.2-0.3h0.3v0.8l1-1.4l-0.2-0.3h0.2l0.5,0.6v-0.3l0.2,0.3h0.3
		c0-0.6,0.1-0.8,0.4-0.8v0.3l-0.1,0.3v0.3l0.9,0.6l0.2-0.3v0.6l1-1.5v1.2c0.4-0.6,0.8-0.8,1.1-0.8c0,0.4,0.2,0.6,0.7,0.6
		c0,0.6,0.1,0.8,0.3,0.8l0.2-1.4l0.2,0.3h0.2l0.4-0.3V27l-0.1,0.3l0.1,0.3v17.9l-0.1-0.3l-0.2,0.3h-0.2l-0.2-0.3h-0.2l0.4,0.3
		l-0.2-0.3l0.3,8.2l0.3,1.8l-0.2,0.9h0.2l0.2,0.3l-0.5,3c0,0.4,0.2,0.6,0.5,0.6l-0.5,1.5l0.2,1.2l-0.2,0.3v0.3l-0.3,1.8l-0.3,2.1
		l0.7,2.4c0-0.8-0.1-1.2-0.3-1.2v0.3l0.2,9.3l0.3,0.6l-0.2,1.2v0.3h0.2v-0.6h0.2v2.1c-0.3,0-0.4,0.2-0.4,0.6v6.2l-0.2,2.9l0.2,2.7
		l-0.3,1.7l0.1,1.2l-0.1,2l0.1,0.3h0.3l0.2-0.3h-0.2v11.1l-0.6,0.3l-0.2-0.3h-0.5v0.8h-0.3l0.2-0.3v-0.6h-1.3v0.1
		c-0.9,0.1-2,0.2-3.2,0.2l-0.5-0.3l-0.4,0.3l-0.5-0.3l-0.2,0.3h-0.2l-0.6-0.3l-0.1,0.3h-0.2l-0.6-0.3l-0.2,0.3l-0.8-0.3h-1.7
		l-0.1,0.3l-0.2-0.3h-0.1l-0.5,0.3c-2,0-3.8,0-5.3,0c-0.4-0.8-0.4-1.2,0.1-1.2h-0.8V97.5l0.2,0.3h0.1c-0.4,0-0.5-1-0.4-2.9
		c0.1-1.9,0.2-3.7,0.2-5.3v-6.8h-0.3v-0.3l0.6-1.8h0.2v0.6h1v-0.6l0.2-0.4l-0.2-0.3c-0.7-0.4-1.3-0.6-1.8-0.6c0-0.6,0.1-0.9,0.4-0.9
		l-0.2-9.3v-1.2l-0.1-0.4l0.1-0.3v-0.3l-0.1-1.4h0.1l-0.1-0.4v-6.2l-0.2-0.3l0.2-0.4v-0.3l-0.2-1.2l0.2-1.5
		c-0.1-2.8-0.2-5.1-0.2-7.1l0.2,0.3c-0.3-0.1-0.3-0.5,0-1.4h-0.5V27.5l0.5-0.9l-0.2-0.3v-0.3l0.3-0.6l0.2,1.2l-0.2,0.9h0.3l0.2-0.3
		h0.1l0.2,0.3v0.3c-0.4-0.3-0.6-0.6-0.6-0.8l-0.2-0.3v-0.3l1.2-0.9V25.2z M202,58.9h0.5v0.3l-0.5,0.6V58.9z M203.2,74.8v0.5
		l-1.3,1.4v-0.3C202.2,75.7,202.6,75.1,203.2,74.8z M222.3,113.5v2.4c0.6,0,0.9,0.6,0.9,1.8h2.5v0.6l-0.3,0.3v0.4l-3.4-1l-0.3,0.4
		v0.3l-0.3-0.3l-1.6,0.3h-2.1l-0.4-0.3l-0.3,0.3h-0.6L216,118l-0.3,0.4h-3.4l-1.5-0.4v0.6h-0.4V118h-0.3l-0.3,0.4h-0.3l-0.4-0.4
		v-0.3L209,118h-1.2l-0.4-0.3h-0.3l-0.6,0.6l-0.9-0.6l-0.3,0.3v-0.3L205,118h-0.3l-0.4-0.3l-0.3,0.3h-0.9l-0.3-0.3h-0.3l-0.3,0.3
		l-0.3-1.8h0.6v0.6l0.3-0.3h0.3v0.9h0.6l0.3-1.8l1.2,0.3l0.9-0.3l0.6,0.6l0.6-0.6h0.6c0.4,0,0.6,0.3,0.6,0.9h0.6
		c0-0.6,0.2-0.9,0.6-0.9h1.8c0.6,0,0.9,0.6,0.9,1.8l0.9,0.3v-0.3l-0.4-1.8l0.4,0.3h0.8v-0.9h0.4l1.2,2.5h0.6c0.4,0,0.6-0.5,0.6-1.5
		h3v-1.5C220.3,114,221,113.7,222.3,113.5z M202.5,64.7h0.3v0.8h-0.5L202.5,64.7z M202.4,65.8h0.5c-0.2,1.7-0.2,2.6,0.1,2.6v-0.3
		L202.4,65.8z M202.7,69.2h0.2l1,0.3c0,0.5-0.4,0.8-1.2,1v-0.8L202.7,69.2z M202.7,80.4l0.2,0.3h0.3l0.5-2.2
		C203.3,78.5,202.9,79.2,202.7,80.4z M202.8,84.1l0.5,0.5V85l-0.5-0.5V84.1z M203.4,82.6h0.7v0.5h-0.7V82.6z M203.9,106.7v0.8
		l-0.4-0.5l0.2-0.3H203.9z M205.3,108.6l0.4,0.5v0.3l-0.4-0.6V108.6z M206.2,116.5l-0.3,0.9h0.9v-0.9H206.2z M209.8,41.4l-0.7-0.3
		v0.6c-0.8,0-1.2-0.2-1.2-0.6l-1.2,0.3v9.4l0.5,1V52l-0.2,0.4v0.3l0.2,0.4h0.3l-0.7,2.6c0,1,0.2,1.6,0.7,1.6l-0.7,1.7l0.3,1.3
		l-0.3,0.4v0.3l0.5,1.3l-0.5,2.6l1.2,2.6c0-0.9,0.2-1.3,0.5-1.3v0.4c0,1.5-0.3,2.2-0.9,2.2v0.4c0.4,0,0.9,0.8,1.4,2.3
		c0,0.4-0.2,0.6-0.7,0.6V79l-0.2,3.6l0.2,2.6l-0.5,1.9l0.3,1.3l-0.3,2.3h0.3l0.2,0.3h0.3l0.2-0.3h0.3l0.9,0.3v-0.3l0.2,0.3h1.2
		l0.3-0.3l0.2,0.3h2.1l0.2-0.3l0.3,0.3h1.8l0.5-0.6l-0.3-3.2l0.3-0.4v-0.3l-0.3-0.4v-0.3l0.3-0.4v-0.3l-0.3-1.3l0.5-2.4l0.2-0.7
		l-0.3-1.4l0.2-1.4c-0.2-3.5-0.3-5.4-0.3-5.9c0-0.5-0.2-0.7-0.7-0.7v-0.9l0.7-0.4l-0.2-1.7l0.2-0.9l-0.4-2.3l0.2-0.3l-0.2-3.2V47.3
		l-0.3-2.9l0.3-0.4v-0.3L216,42l0.3-1.3l-1.2,0.4h-0.9l-0.9-0.4L209.8,41.4z M207.3,71.1h0.3l0.2,0.8l-0.2,0.2h-0.3V71.1z
		 M208.7,71.1v0.8l-0.5,0.5l-0.2-0.3v-0.7L208.7,71.1z M209.2,61.6l0.5,0.5l-0.5,0.5l-0.2-0.3L209.2,61.6z M209.6,114.7h0.3
		l-0.6,0.6H209L209.6,114.7z M209.2,26.4h0.5v0.4l-0.5,0.6V26.4z M209.9,65v1h-0.7v-0.7L209.9,65z M209.3,110.7l0.9,0.3v0.6h-0.3
		l-0.6-0.6V110.7z M209.7,68.4h0.5v1.1h-0.2L209.7,68.4z M210.8,112.2v0.3l-0.6,0.6h-0.3L210.8,112.2z M210.7,107.8h0.4l-0.2,0.8
		h-0.2V107.8z M211.4,74.6v0.2l-0.5,0.5v-0.2L211.4,74.6z M211.1,112.2l2.1,2.5l-0.6,0.9l-0.9-0.3v-0.6h0.6v-0.6
		C211.5,114.1,211.1,113.5,211.1,112.2z M211.9,65v0.5l-0.5,0.5h-0.2C211.4,65.3,211.6,65,211.9,65z M212.3,69.2v0.5l-0.2,0.8h-0.5
		v-0.3C211.9,69.6,212.1,69.2,212.3,69.2z M211.9,74.3h0.5v0.8h-0.5V74.3z M212.8,73h0.3l0.2,0.8h-1v-0.3L212.8,73z M214.1,63.1
		l0.2,1.3h-0.7v-0.8L214.1,63.1z M214.2,112.2h0.3l-0.6,0.6h-0.3L214.2,112.2z M215.2,62.8l-0.2,0.8l-0.5-0.5l0.2-0.3H215.2z
		 M215.5,92.1l-0.6,0.5v0.6l0.6,0.5h-0.3v-0.5l-0.2-0.3l0.5-0.5V92.1z M215,56.5c0.3,0,0.5,0.2,0.5,0.7v1.1h-0.3L215,56.5z
		 M215,67.1h0.7v0.5H215V67.1z M215.2,79.9h0.3v1H215v-0.2L215.2,79.9z M215.2,68.4h0.3v1.6h-0.3V68.4z M215.8,74.3v1l-0.5-0.5
		L215.8,74.3z M219.3,116.7v1.2h0.4v-1.2H219.3z M220.1,28.3l0.7,0.4v0.9l-0.7-0.9V28.3z M220.6,63.1v0.8l-0.5-0.5l0.2-0.3H220.6z
		 M220.1,91.3h0.5v0.8h-0.5V91.3z"/>
	<path fill="#FFFFFF" d="M218.3,78h0.3v1.5h-0.3V78z M220.3,66.3h0.3v0.9c-0.1,8-0.3,12-0.6,12h-0.2v1.9l-0.6,0.6h-0.3l0.3-1.6v-0.3
		l-0.3-1.9l0.3-8.8l-0.3-0.3l0.3-0.4h0.3v0.6h0.3L220.3,66.3z M223.7,25.2h0.3l0.6,2.6l0.7-0.6l0.3,0.3l0.5-0.6l-0.3-0.3v-0.6
		l0.8-0.3v0.3l-0.3,0.3v0.3h0.5l0.3-1.2h0.2V27l1.4-0.3h0.5l1.4,1.5v-0.6l0.3,0.3h0.3c0-0.6,0.5-0.8,1.6-0.8c0-0.6,0.2-0.9,0.5-0.9
		l0.8,0.9l1.9-0.6l0.2,0.3V27l0.3-0.3h0.8c0.4,0,0.6,0.4,0.6,1.2c0.6,0,1.2-0.3,1.9-0.8l0.3,0.3l0.3-0.3h0.5v0.8l1.9-1.4l-0.3-0.3
		h0.3l0.8,0.6v-0.3l0.3,0.3h0.5c0-0.6,0.3-0.8,0.8-0.8v0.3l-0.2,0.3v0.3l1.6,0.6l0.3-0.3v0.6l1.9-1.5v1.2c0.7-0.6,1.3-0.8,1.9-0.8
		c0,0.4,0.4,0.6,1.3,0.6c0,0.6,0.2,0.8,0.5,0.8l0.3-1.4l0.2,0.3h0.3l0.8-0.3V27l-0.3,0.3l0.3,0.3v17.9l-0.3-0.3l-0.3,0.3h-0.3
		l-0.3-0.3h-0.2l0.7,0.3l-0.3-0.3l0.5,8.2l0.6,1.8l-0.3,0.9h0.3l0.2,0.3l-0.8,3c0,0.4,0.3,0.6,0.8,0.6l-0.8,1.5l0.3,1.2l-0.3,0.3
		v0.3l-0.5,1.8l-0.6,2.1l1.3,2.4c0-0.8-0.2-1.2-0.5-1.2v0.3l0.3,9.3l0.5,0.6l-0.3,1.2v0.3h0.3v-0.6h0.3v2.1c-0.5,0-0.8,0.2-0.8,0.6
		v6.2l-0.3,2.9l0.3,2.7l-0.5,1.7l0.2,1.2l-0.2,2l0.2,0.3h0.6l0.3-0.3h-0.3v11.1l-1.1,0.3l-0.2-0.3H252v0.8h-0.5l0.3-0.3v-0.6h-2.1
		v0.1c-1.6,0.1-3.5,0.2-5.7,0.2l-0.8-0.3l-0.8,0.3l-0.8-0.3l-0.2,0.3h-0.3l-1-0.3l-0.3,0.3h-0.3l-1-0.3l-0.3,0.3l-1.4-0.3h-3
		l-0.3,0.3l-0.3-0.3h-0.3l-0.8,0.3c-3.5,0-6.6,0-9.4,0c-0.7-0.8-0.7-1.2,0.2-1.2h-1.4V97.5l0.3,0.3h0.2c-0.7,0-0.9-1-0.6-2.9
		c0.1-1.9,0.2-3.7,0.2-5.3v-6.8H221v-0.3l1.1-1.8h0.3v0.6h1.8v-0.6l0.3-0.4l-0.3-0.3c-1.3-0.4-2.4-0.6-3.2-0.6
		c0-0.6,0.3-0.9,0.8-0.9l-0.3-9.3v-1.2l-0.3-0.4l0.3-0.3v-0.3l-0.3-1.4h0.3l-0.3-0.4v-6.2L221,59l0.3-0.4v-0.3l-0.3-1.2l0.3-1.5
		c-0.2-2.8-0.3-5.1-0.3-7.1l0.3,0.3c-0.5-0.1-0.5-0.5,0-1.4h-0.8V27.5l0.8-0.9l-0.3-0.3v-0.3l0.6-0.6l0.3,1.2l-0.3,0.9h0.5l0.3-0.3
		h0.3l0.3,0.3v0.3c-0.7-0.3-1-0.6-1-0.8l-0.3-0.3v-0.3l2.1-0.9V25.2z M221,47.5l0.3,0.3l-0.3,1h-0.5v-0.6L221,47.5z M222.1,78.2h0.5
		l-1.6,0.4l-0.5,2.2h1.3v-1.6L222.1,78.2z M221.5,110.9h0.3l0.2,3.8c0.6,0,0.8,0.4,0.8,1.3l-2.3-0.6h1.3l0.6,0.6v0.3l-0.3,0.3v0.3h1
		c0-0.7,0.6-1.3,1.9-1.8c0.9,0.2,1.3,0.6,1.3,1.2h0.5v-0.9h1.1c0.4,0,0.6,0.5,0.6,1.6h1.1l1.3-1.6h1.4c0.3,0,0.5,0.3,0.5,0.9
		l1.1-0.9l0.7,0.4l0.3-0.4v1.6h1.1c0-0.8,0.2-1.2,0.5-1.2l0.3-0.4c0.7,0.2,1.1,0.7,1.1,1.3h0.3c0-0.8,0.7-1.3,2.1-1.3
		c0.6,1.5,1.1,2.2,1.4,2.2l0.5-1.8h0.5v-0.4l-0.3-2.3l1.4,0.4h0.8v2.3h1.9c0.9,0.8,1.4,1.4,1.4,1.8h0.5c0-1.2,0.3-1.8,0.8-1.8
		l0.3,0.3h0.3l0.8-0.3v0.6h0.2l0.8-0.6h0.3c0.6,0,0.8,0.4,0.8,1.2c0.5,0,0.8-0.4,0.8-1.2h0.5v2.8l-1.8-0.3l-1.6,0.3l-1.1-0.3v0.3
		l-0.3-0.3h-4.9l-0.3-0.3l-0.3,0.3H242l-1.9-0.3l-0.3,0.9l0.3,0.4h-0.3c-0.4,0-0.6-0.4-0.6-1.3l-2.7,0.6l-0.5-0.6l-0.3,0.3l-0.3-0.3
		H235l-2.1,0.6h-0.5l-1.9-0.3v0.3l0.8,1.3v0.6h-0.5l-0.5-0.6c-0.7,0.2-1.1,0.6-1.1,1.3h-0.3l-0.6-0.6l-0.3,0.3h-0.6l-0.5-1.9h-0.2
		l-0.3,0.4h-0.3c0-0.8-0.7-1.2-2.1-1.3v0.6l-0.5-0.6l-0.3,0.3l-1.3-0.3l-0.3,0.3h-0.3l2-0.6l-0.3,0.3h-0.3l-1.4-0.3V110.9z
		 M220.7,48.1h0.5v1h-0.5V48.1z M221.5,107.7h0.3v1.9h-0.3V107.7z M225.1,111.8c0.4,0,0.6,0.8,0.8,2.3h-0.3l-0.8,0.6l-0.8-1.3
		C224.4,112.5,224.7,111.9,225.1,111.8z M232.9,41.5v0.9h-4c-3.1,1.2-4.6,3.5-4.6,6.9v13.2l0.3,1.3l-0.3,1.3v12.5
		c0.9,0.8,1.4,2.1,1.4,3.8h0.3c0-0.8,0.6-1.3,1.9-1.3l1.1,0.3l0.5-0.6v0.3l-1.1,1.9v0.6h-0.5c0-0.8-0.3-1.3-0.8-1.3l-0.2,2.8h-0.3
		l-0.3-1.5l0.3-0.3V82h-0.3l-0.5,0.6v3.4l0.3,1.9l-0.3,1.6c0.6,5.2,1.6,7.9,3,7.9c0,0.5,1.3,0.9,4,1.3l0.3-0.4h0.3l0.3,0.4h0.3
		l1-0.4l0.3,0.4l0.3-0.4h0.3l1.4,0.4l0.3-0.4h0.3l1.1,0.4l0.3-0.4h0.3l1,0.4v-0.4l0.3,0.4h1.4l0.3-0.4l0.3,0.4h1.6
		c1.8,0,2.7-0.2,2.7-0.6l0.3,0.3h0.3c2.3-1.5,3.5-4,3.5-7.5h0.2l-0.2-0.4l0.2-3.8l-0.5-5.6l-0.2-1.3l0.5-1.3h-0.3l-0.2,1.6v0.9h-0.6
		v-0.9l0.3-1.6h-0.5v1.6l1.8-0.3h-1v0.6l0.2-0.3l-0.3,0.3h-0.5l0.3-0.3v-1.3h-3.2l-0.3,1l-2.1-0.6l-0.3,1.3h-0.3v-1l-0.2,0.4h-0.6
		l-0.3-0.4h-0.3l-0.5,0.7l-0.3-0.3h-0.2l-0.3,0.3v0.3l0.3,0.3h-0.3c0.2,1,0.6,1.6,1.1,1.6v0.3l-0.3,0.3l0.3,0.3v0.3l-0.6,0.6
		l-1.3-4.7h-0.3V83l0.3,1.2c0,2.4-0.7,3.6-2.1,3.8c-0.9,0-1.4-1.3-1.4-3.8l-0.3-0.9l0.3-0.3v-4.1l-0.3-0.3l0.3-0.4V78l-0.3-0.4v-8.1
		l1.9-0.6l-0.6-0.6h-0.3v0.6l-0.8-0.6h-0.3c0,6.2-0.3,9.4-0.8,9.4V65.1l-0.3-9.4l0.3-2.8l2.5-0.9l0.5,3.8v3.5l0.3,0.3l-0.3,0.4V60
		l0.3,3.8l-0.3,1.9l0.3,1.5c0.3,0,0.5-0.3,0.5-0.9h0.6c0,0.6,0.2,0.9,0.5,0.9l0.5-1.2h0.3v0.3c-0.2,1.9-0.5,2.8-0.8,2.8l-0.3-1.5
		l-0.8,0.9c0,0.5,0.2,3.7,0.6,9.5v0.3h1v-0.6h0.5c0,0.7,0.2,1,0.6,1h0.3c0-0.7,0.2-1,0.5-1V78l-0.3,0.3v0.4l0.3,0.3h0.3l0.5-0.6v0.4
		h0.3V78l1.3,0.3V78l1.4,0.6h3.4l-0.5-10.4l-0.2-1l0.2,0.4h0.3l0.3-0.4v1h0.2l0.3-0.4l-1.3,1l0.3-1.6l-0.3-0.3v-0.4l0.3-1.2
		l-0.3-1.6l0.3-0.3l-0.3-1.6V51.9c0-5-1-8-3-8.8v1.3l0.5,0.6l0.3-0.3v1.9h-0.3l-1.1-2.2l-0.5-0.6l0.3-1.3l-0.3-0.3l-0.2,0.3h-0.6
		l-0.8-0.6l-0.2,0.3l-0.3-0.3l-0.5,0.6l-0.5-0.6l-0.8,0.6l-1.4-0.3h-1.4l-0.3,0.3H238v-0.3l-0.8,0.3C235,42.5,233.6,42.2,232.9,41.5
		z M226.4,111.8h0.8l0.2,1.6v0.3l-0.7,1l-0.6-1v-0.3L226.4,111.8z M229.4,115.7v0.3l-0.5,0.6v-0.3L229.4,115.7z M229.9,43.4h0.5
		l-0.2,1.6h-0.5L229.9,43.4z M231,109.3h0.5v0.3l-0.3,0.9l-0.3-0.3h-0.3L231,109.3z M231,112.1h1l0.3,1.3c-0.3,0.8-0.6,1.3-0.8,1.3
		c-0.4,0-0.6-0.5-0.8-1.6L231,112.1z M232,108.1h0.5v0.6l-0.2,1.6h-0.5l0.2-0.3V108.1z M233.1,112.1h0.3c0.5,0.2,0.8,0.8,0.8,1.9
		l-0.5,0.6h-0.3l-0.8-1v-0.9L233.1,112.1z M233.4,69.5h0.3v8.7l-0.3,1h-0.3v-0.4L233.4,69.5z M233.7,107.7h0.3v1.3h-0.6v-0.3
		L233.7,107.7z M235,113h0.5l0.3,1h-0.3l-0.5-0.6V113z M237.2,43.4l0.5,0.6v0.3h-0.5V43.4z M239.1,20.3h0.2v0.6h-0.8L239.1,20.3z
		 M239.3,62.9l0.8,0.3v0.9l-0.3-0.3h-0.3l-0.3,0.3V62.9z M240.9,58.7h0.8l0.5,0.6v0.4l-0.5,0.6v-0.6l-0.3,0.3h-0.5V58.7z M242,67
		l0.3,0.3v0.4l-0.5,0.6h-0.3v-0.6L242,67z M242,45.3h0.3v2.2H242V45.3z M242.3,111.5h0.5l-0.3,0.9h-0.3V111.5z M244.2,49.4v0.4
		l-0.8,2.5h-0.3v-0.3C243.4,50.2,243.8,49.4,244.2,49.4z M243.9,82.4l0.3,0.3l-0.3,0.3v0.6l0.3-0.3h0.5v0.9l-0.3,1.6l0.3,0.3
		l-0.5,0.6l0.5,1.6h-0.3l-0.5-0.6v-1.3l0.5-2.5h-0.3l-0.8,0.3l-0.3-0.3v-0.6L243.9,82.4z M244.2,61.9h0.3v1.6l-0.5-0.6L244.2,61.9z
		 M245,42.8v0.3l-0.6,0.6v-0.3L245,42.8z M244.4,60h0.6v0.4l-0.6,0.6V60z M244.4,66.3L245,67v0.3l-0.6,0.6V66.3z M246.1,54.7h0.8V55
		l-0.5,0.6h-0.3V54.7z M247.2,112.1v0.3l-0.6,0.6v-0.3L247.2,112.1z M247.4,108.4v0.3l-0.5,0.6V109L247.4,108.4z M247.7,52.5h0.3
		l-0.8,0.9v-0.3L247.7,52.5z M247.4,57.9l0.3,0.3h0.3l1-0.3v0.3l-1.4,1.3L247.4,57.9z M248.5,53.5h0.5c-0.2,2.1-0.6,3.1-1,3.1V56
		C248.3,55.3,248.5,54.5,248.5,53.5z M248.2,107.1l0.5,0.6l-0.2,0.3h-0.3V107.1z M249.3,81.4v0.3l-0.6,0.6l-0.2-0.3v-0.3l0.2-0.3
		H249.3z M250.3,64.5v0.6l-1,1.9L250.3,64.5z M249.6,83.6l0.6,0.6v0.4l-0.6-0.6V83.6z M250.3,78.8l-0.2,0.4h0.2
		C250.3,72.3,250.3,72.2,250.3,78.8z M250.7,116.5l-0.3,1.3h0.8v-1.3H250.7z M251.2,108.4l0.5,0.6v0.3l-0.5-0.6V108.4z M252.8,60
		h0.2l0.3,1l-0.3,0.4h-0.2V60z M253,54.4h0.3V56l0.8-0.6v1.3H253V54.4z M253,67.9v1l0.5-0.6v-0.4H253z M253.6,114.7h0.3v0.6H253
		L253.6,114.7z M253.3,110.6l0.8,0.3v0.6h-0.3l-0.5-0.6V110.6z M253.6,60.4h0.5v1.3l-0.5-0.6V60.4z M254.1,62.3v0.9h-0.5v-0.3
		L254.1,62.3z"/>
	<path fill="#FFFFFF" d="M252.9,39.6v0.6l-0.7,1.1v-0.6L252.9,39.6z M256,25.2h0.3l0.5,2.6l0.7-0.6l0.3,0.3l0.5-0.6l-0.3-0.3v-0.6
		l0.7-0.3v0.3l-0.3,0.3v0.3h0.5l0.3-1.2h0.2V27l1.2-0.3h0.5l1.3,1.5v-0.6l0.2,0.3h0.3c0-0.6,0.5-0.8,1.5-0.8c0-0.6,0.2-0.9,0.5-0.9
		l0.7,0.9l1.7-0.6l0.2,0.3V27l0.3-0.3h0.7c0.4,0,0.6,0.4,0.6,1.2c0.5,0,1-0.3,1.6-0.8l0.3,0.3L271,27h0.5v0.8l1.7-1.4l-0.3-0.3h0.3
		l0.7,0.6v-0.3l0.3,0.3h0.5c0-0.6,0.2-0.8,0.7-0.8v0.3l-0.3,0.3v0.3l1.5,0.6l0.2-0.3v0.6l1.7-1.5v1.2c0.6-0.6,1.2-0.8,1.7-0.8
		c0,0.4,0.4,0.6,1.2,0.6c0,0.6,0.2,0.8,0.5,0.8l0.3-1.4l0.3,0.3h0.3l0.7-0.3V27l-0.2,0.3l0.2,0.3v17.9l-0.2-0.3l-0.3,0.3h-0.2
		l-0.3-0.3h-0.3l0.7,0.3l-0.2-0.3l0.5,8.2l0.5,1.8l-0.3,0.9h0.3l0.2,0.3l-0.7,3c0,0.4,0.2,0.6,0.7,0.6l-0.7,1.5l0.2,1.2l-0.2,0.3
		v0.3l-0.5,1.8l-0.5,2.1l1.2,2.4c0-0.8-0.2-1.2-0.5-1.2v0.3l0.3,9.3l0.5,0.6l-0.3,1.2v0.3h0.3v-0.6h0.2v2.1c-0.5,0-0.7,0.2-0.7,0.6
		v6.2l-0.3,2.9l0.3,2.7l-0.5,1.7l0.3,1.2l-0.3,2l0.3,0.3h0.5l0.3-0.3h-0.3v11.1l-0.9,0.3l-0.3-0.3h-0.7v0.8h-0.5l0.3-0.3v-0.6h-1.9
		v0.1c-1.4,0.1-3.1,0.2-5.1,0.2l-0.7-0.3l-0.7,0.3l-0.7-0.3l-0.2,0.3h-0.3l-1-0.3l-0.2,0.3H270l-0.9-0.3l-0.2,0.3l-1.3-0.3H265
		l-0.2,0.3l-0.3-0.3h-0.2l-0.8,0.3c-3.1,0-6,0-8.4,0c-0.6-0.8-0.6-1.2,0.2-1.2H254V97.5l0.3,0.3h0.2c-0.6,0-0.8-1-0.6-2.9
		c0.2-1.9,0.3-3.7,0.3-5.3v-6.8h-0.5v-0.3l0.9-1.8h0.3v0.6h1.6v-0.6l0.3-0.4l-0.3-0.3c-1.2-0.4-2.1-0.6-2.8-0.6
		c0-0.6,0.2-0.9,0.7-0.9l-0.2-9.3v-1.2l-0.2-0.4l0.2-0.3v-0.3l-0.2-1.4h0.2l-0.2-0.4v-6.2l-0.3-0.3l0.3-0.4v-0.3l-0.3-1.2l0.3-1.5
		c-0.2-2.8-0.3-5.1-0.3-7.1l0.3,0.3c-0.5-0.1-0.5-0.5,0-1.4h-0.8V27.5l0.8-0.9l-0.3-0.3v-0.3l0.5-0.6l0.3,1.2l-0.3,0.9h0.5l0.3-0.3
		h0.2l0.3,0.3v0.3c-0.6-0.3-0.9-0.6-0.9-0.8l-0.2-0.3v-0.3l1.9-0.9V25.2z M273.4,26.9h-19v-0.4h0.6v-0.4l1.5,0.4h5.2l6.1-0.4
		l3.7,0.4l0.3-0.4h0.3l1.3,0.4V26.9z M272.7,38.3l0.3,2.4v0.9h-0.3l0.5,11.3l-0.3,2.4v0.5l0.3,0.5l-0.3,1.4l0.3,2.4l-0.3,0.5h0.3
		l-0.3,0.5v0.5l0.3,4.5l-0.3,0.5v0.4l0.3,3.4v0.5l-0.3,0.5l0.3,0.5v1.9c-0.5,0-1.6-3.9-3.3-11.6l-0.9-0.9l0.2-0.5v-0.5l-0.2-0.5
		c-0.5-2.2-1-3.2-1.5-3.2l0.3-0.5v-1l-0.3,0.5l-1.7-1l-0.5,1.9l0.3,0.5h0.3l0.3-0.5l0.7,2.8h0.2v-1.9h1v1.4h-0.8v0.9
		c0.5,0,0.8,0.3,0.8,1l-0.3,0.5h-0.8c0-1-0.2-1.5-0.7-1.5c0-1.4-0.9-2.5-2.7-3.2v-1.5h0.3l0.2,0.5h0.3l0.3-0.5v1.5h0.3
		c0-1.9,0.3-2.9,1-2.9l0.7-0.5l0.7,0.5v-0.9c-0.5,0-0.8-1-1-2.9c-0.8,0-1.3,0.6-1.5,1.9l1-0.9v1.9c-0.7,0-1,0.5-1,1.4h-0.5l-0.3-2.4
		h0.5v-0.9h-0.3l-0.7,0.5v-0.5l-0.3-0.5v-0.5l0.7-0.5l0.8,0.5v-1.4h-0.3l-0.7,0.5v-0.5l0.3-1.4h0.5l-0.5,0.9h0.3l0.5-1.4h0.5v0.5
		l-0.8,0.5v0.5l0.7,0.5v-0.5c-0.1-2.6-0.5-4.5-1.2-5.7c0,1.6-0.2,2.4-0.5,2.4v-3.3h0.5l-0.3-1.4h-6.5l-0.2,1.9l0.2,2.8L257,45
		l0.2,2.4v11.3l0.3,4.3l-0.3,1.4l0.5,1.4l-0.3,2.4v0.5l0.3,1.9l-0.3,0.5l0.3,3.3v7.1l0.3,0.5l-0.3,1.5l0.3,3.2l-0.3,0.5l0.3,0.5
		h-0.3L258,88v1.4l-0.3,1.4l0.5,6.1l0.2-0.5h0.3l0.8,0.5l2.2-0.9l0.8,0.5L264,96l0.3,0.5V96H264l0.3-0.5v-1l-0.3-0.4l0.3-0.4v-3.4
		l-0.3-0.5v-0.5l0.3-0.5l-0.3-0.5l0.3-0.5l-0.3-0.5h0.3L264,87v-0.5l0.3-1.4l-0.3-0.5h-0.3l0.3-0.5v-1.4l-0.3-1.9L264,79l-0.3-2.8
		l0.3-2.4h-0.3l0.3-1.4l-0.3-3.3l0.3-0.5l-0.3-5v-1.9c0.4,0.5,3.6,11.8,9.7,33.8l0.3-0.5h0.5l0.2,0.5l2,0.1l0.3-0.6h0.2l0.7,0.2
		l1.3,0.9h0.3v-0.4h-0.5v-0.4h0.5v-0.5h-0.3l-1,0.5c0,0,0.6-0.3,1.8-0.9l-0.3,0.5v0.5l0.5-1v-0.5l-0.2-0.4l0.2-1l-0.2-3l0.2-2.4
		l-0.2-1.8l0.2-2.4l-0.2-2.4l-0.3,0.5h-0.3v-0.9h0.7v-0.5l-0.5-2.8l0.3-0.5h0.2l-0.5-6.1l0.3-1.9l-0.3-1.9l0.3-2.4l-0.3-2.4l0.3-2.4
		l-0.3-1.9h0.3l-0.5-1.4l0.3-1.5l-0.3-3.3l0.3-1.9l-0.3-3.7l0.3-0.5l-0.3-0.5v-6.6l-0.3,0.5h-0.3l-0.2-0.5h-0.3l-1.5,0.5l-0.3-0.5
		l-0.3,0.5H272.7z M261.2,74.5l0.4,2.3h-0.7l-0.3-1.7l0.3-0.6H261.2z M264.3,89.2H264v-1.9h0.3V89.2z M266,117h-2V116h0.3l1,0.5
		l0.4-0.5l0.3,0.5V117z M267.1,21.6v1.1l-0.4,1.7h-1v-0.5L267.1,21.6z M267.1,28.8h0.7l-0.3,0.5v0.6l0.3,0.6l-0.3,0.6h-0.4V28.8z
		 M268.1,35.5h0.3l2.1,2.8h-0.4c-1.4-0.8-2-1.6-2-2.3V35.5z M269.1,39.8h0.7l0.7,1.1h-0.4l-0.3-0.6h-0.4l-0.4,0.6V39.8z M270.5,45.4
		v0.5l-1.2,1.1l0.5-0.5L270.5,45.4z M276,70.1v1.1l-1.4,3.7L276,70.1z M276.7,44.8v0.6l-0.3,1.6h-0.7
		C276,45.5,276.3,44.8,276.7,44.8z M280.8,87.2v1.1h-1.7v-0.5L280.8,87.2z M280.1,94.6l-0.7,1l-0.4-1.4h0.7L280.1,94.6z M281.2,84.4
		c0,0.7-0.3,1.1-1,1.1h-0.7V85L281.2,84.4z M281.5,94.1l-0.7-0.9l0.4-0.5c-0.7,0-1-1-1-3v-0.5h0.4v0.9h0.3l1.7-0.5v0.5L281.5,94.1z
		 M281.2,39.8v2.8h-0.7v-1.7L281.2,39.8z M283.9,82.2v1.1l-1,0.6l-0.4-0.6v-0.6L283.9,82.2z M284.3,88.3h1l-0.7,1.1h-0.4V88.3z
		 M284.6,89.9h1v0.6l-1,0.6V89.9z M287.1,86.6h0.3l-0.7,1.2h-0.3L287.1,86.6z M288,71.2v0.5l-0.7,1.2v-0.6L288,71.2z M288,83.3h0.4
		v1.1h-1L288,83.3z M288.4,85v1.6h-0.7v-0.5L288.4,85z M288,78.3h0.4l0.7,1.1h-0.3L288,78.3z M291.2,71.7l1,0.6v0.6h-1.4l0.4-0.6
		V71.7z"/>
</g>
</svg>
